<svg version="1.0" xmlns="http://www.w3.org/2000/svg" width="610.75" height="610.75"><g fill-rule="evenodd" clip-rule="evenodd"><path fill="#FEFEFE" d="M610.75 610.75H0V0h610.75v610.75zM400.144 486.729l.001-28.701v-4.327h-4.886v37.932h4.885v-4.904zm-50.766 72.001a.565.565 0 00-.369-.385c.003-10.172.023-20.344-.021-30.516-.005-.965-.425-1.929-.651-2.893l-3.618.018c-.213.587-.609 1.172-.611 1.759-.036 11.515-.035 23.028.002 34.543.002.585.406 1.168.623 1.753l8.984-.026h8.288l3.64-.003c3.98.052 1.282-2.632 2.09-4.25h-18.357zM85.83 478.908v-25.271h-5.146v27.052l-.184 1.219-.34 1.18c-2.718 3.999-6.85 5.475-11.926 4.411-3.495-.732-5.692-2.719-6.321-6.231-.312-1.744-.447-3.54-.458-5.314-.049-7.412-.021-14.825-.021-22.381h-4.735c0 9.652-.345 19.154.135 28.613.267 5.261 4.052 8.585 9.163 9.669 2.751.583 5.741.631 8.542.275 7.346-.931 11.354-5.817 11.291-13.222zm202.306 72.539l15.471.056c.955 2.497 1.897 5 2.868 7.491 1.835 4.712 1.975 4.779 7.229 3.713-.446-1.216-.849-2.424-1.328-3.601-4.039-9.903-8.095-19.8-12.141-29.701-1.989-4.867-1.984-4.869-7.427-4.356l-14.443 37.817c5.35.527 5.329.52 6.936-3.944.903-2.507 1.887-4.984 2.835-7.475zm246.844.073l15.512-.122c.985 2.481 1.99 4.956 2.952 7.447 1.815 4.706 1.806 4.71 7.089 4.006-.016-.282.045-.599-.057-.851-4.782-11.849-9.621-23.674-14.335-35.549-.925-2.331-2.738-1.665-4.216-1.503-.98.108-2.346.967-2.701 1.832-2.702 6.596-5.215 13.27-7.752 19.932-2.036 5.347-4.021 10.712-6.051 16.123 5.223.675 5.211.671 6.798-3.79.896-2.518 1.84-5.018 2.761-7.525zm-387.63 11.459c3.972-.219 1.03-2.759 1.866-4.313h-22.755l-.679-12.966h20.943v-4.763h-20.503v-11.503h22.06v-4.498h-26.625c-.215.577-.615 1.154-.617 1.732-.036 11.544-.035 23.088.002 34.632.002.574.41 1.147.629 1.721l2.42-.04 18.427.001 4.832-.003zm-8.42-108.505l-4.958-1.491c0 7.628.034 14.458-.017 21.287-.021 2.756-.229 5.512-.352 8.269-.726-1.056-1.459-2.106-2.177-3.167-5.599-8.278-11.194-16.559-16.791-24.839l-5.358-1.416v38.489h4.679v-29.36c5.951 8.906 11.9 17.813 17.853 26.718 2.281 3.411 2.992 3.652 7.121 2.416v-36.906zm107.987 15.359l.009-11.747c6.651.014 13.302.045 19.953.011.681-.003 1.361-.399 2.041-.613v-3.879h-27.264v38.06h28.143v-4.547h-22.875v-12.967h20.521v-4.318h-20.528zm-31.002 93.184c.239-.661.683-1.321.684-1.982.02-9.67-.019-19.34-.044-29.011.355.439.871.824 1.041 1.326a3857.89 3857.89 0 018.961 26.719c.572 1.725.914 3.134 3.419 3.152 2.619.019 2.751-1.613 3.32-3.257 2.811-8.133 5.626-16.266 8.506-24.374.229-.646.964-1.111 1.464-1.661-.024 9.034-.063 18.068-.04 27.104.001.662.463 1.324.71 1.986l1.817-.038.274.042.273-.049.639.02.281.052.28-.055c.205-.694.586-1.389.589-2.083.038-11.426.032-22.851.014-34.276-.001-.555-.2-1.109-.33-1.784-1.024 0-1.941.146-2.795-.026-3.078-.619-4.298.855-5.141 3.664-1.852 6.173-4.042 12.245-6.124 18.348-1.094 3.208-2.249 6.396-3.562 10.123-3.473-10.402-6.707-20.183-10.042-29.927-.289-.843-1.172-1.973-1.906-2.077-2.017-.287-4.101-.1-6.277-.1v38.165l3.989-.001zM487.889 92.455l-.004-.016c-.56-1.663-.854-3.481-1.725-4.962-3.948-6.72-10.5-7.876-17.503-7.727-7.773.166-14.653 2.989-20.741 7.43-12.24-11.625-24.646-8.221-37.207-.619l-.576-6.985-12.907 4.765c2.598 17.601.88 34.955 1.317 52.234l.021 1.781-1.589 11.024h15.877l-1.699-9.148c.037-.493.105-.985.104-1.478-.03-13.833-.068-27.665-.105-41.498 3.78-2.09 7.339-4.923 11.384-6.121 9.163-2.714 15.122.471 14.701 10.985-.021.496.013.994-.005 1.49-.533 15.278 1.337 30.641-1.577 45.745h15.212c-.432-6.182-1.079-12.165-1.217-18.16-.235-10.318-.153-20.643-.205-30.965v-1.869c.127-.367.142-.863.396-1.083 4.617-3.981 9.871-6.765 16.013-7.069 6.15-.304 9.979 3.062 9.985 8.875.019 16.795 1.453 33.647-1.436 50.363h15.422c-.433-4.61-1.151-9.103-1.22-13.606-.2-13.099-.124-26.201-.204-39.302-.009-1.361-.335-2.723-.512-4.084zM311.452 214.144l.01 14.844c.763 4.068 1.148 8.256 2.394 12.17 1.254 3.942 3.947 7.072 8.606 6.979 4.731-.095 8.511 1.801 10.856 5.586 2.79 4.5 5.357 9.271 7.135 14.24 4.353 12.168 6.154 24.941 7.926 37.691.448 3.224 1.029 6.431 1.549 9.645l.87-.093 12.593-239.082-54.805-4.767c-.294 2.581-1.046 4.983-.736 7.24 1.063 7.722 2.113 15.483 3.88 23.063 2.764 11.857 6.912 23.607 6.424 35.836-.644 16.102-2.664 32.148-4.106 48.218-.852 9.478-1.73 18.953-2.596 28.43zM113.84 202.417c9.28-13.34 15.4-27.395 20.903-41.734 4.783-12.464 9.625-24.883 16.282-36.512 9.559-16.7 23.513-29.645 36.868-43.071 7.083-7.12 14.265-14.102 19.567-22.721 3.654-5.941 6.344-12.215 6.423-20.176-4.787.792-9.194 1.703-13.648 2.226-16.347 1.92-32.692 3.885-49.07 5.506-17.957 1.777-35.991 2.828-53.91 4.907-10.38 1.204-20.652 3.574-30.858 5.919-3.341.768-6.606 2.729-9.394 4.824-3.831 2.878-3.507 8.068.066 11.116a2159.615 2159.615 0 0123.22 20.062c.773.679 1.37 1.921 1.465 2.956 1.232 13.428 2.317 26.869 3.579 40.294.119 1.269.9 2.772 1.859 3.616 5.812 5.116 11.785 10.048 17.647 15.107.764.659 1.569 1.632 1.731 2.567 1.307 7.512 2.463 15.049 3.666 22.579l3.604 22.535zm-9.478 29.403c-.229.808-.375 1.267-.488 1.734-1.774 7.394-3.175 14.902-5.397 22.158-3.792 12.378-8.536 24.488-9.94 37.487-.909 8.419-.572 16.868 3.784 24.28 12.408 21.113 29.404 36.965 53.205 44.598 16.055 5.148 32.51 5.211 48.872 2.725 19.18-2.916 38.177-7.018 57.312-10.262 12.59-2.134 25.242-4.099 37.944-5.33 12.118-1.174 23.752 2.052 35.163 5.939 10.118 3.447 20.206 7.128 30.959 8.035 14.912 1.258 29.753.232 44.427-2.519 4.904-.919 9.759-2.585 14.342-4.584 3.893-1.697 3.917-4.85.362-7.276-1.846-1.26-3.986-2.431-6.144-2.831-9.533-1.767-19.073-3.697-28.701-4.701-12.169-1.269-24.091-3.092-35.633-7.426-8.405-3.157-16.99-6.06-25.727-8.063-16.542-3.792-33.226-2.135-49.701.759-17.251 3.03-34.375 6.79-51.567 10.164-17.715 3.477-35.488 6.59-53.658 5.672-19.459-.984-34.346-9.685-44.467-26.5-9.73-16.165-11.98-33.748-10.473-52.143.567-6.915 1.175-13.84 1.325-20.771.093-4.393-.703-8.762-5.799-11.145zM510.06 97.527c7.88-7.672 17.776-8.943 24.308-7.466 3.647.824 5.804 2.933 5.941 6.421.172 4.35.042 8.711.042 13.184-.642.073-1.117.087-1.574.185-6.268 1.333-12.72 2.124-18.751 4.157-7.805 2.631-12.532 8.358-13.429 16.89-1.078 10.247 4.291 18.095 13.422 19.66 8.312 1.424 15.689-.457 22.14-6.151.622 1.308 1.113 2.479 1.718 3.587 1.774 3.252 2.945 3.642 6.203 2.068 2.737-1.323 5.451-2.694 8.473-4.191-4.871-3.519-5.783-8.294-5.726-13.618.128-11.726.071-23.454.031-35.18-.032-9.323-4.799-15.326-13.884-16.85-8.661-1.454-17.189-.715-25.274 3.098-6.188 2.918-6.85 4.405-4.802 10.892.325 1.028.711 2.036 1.162 3.314zM325.198 491.488l-12.269-17.29c.751-.287 2.261-.732 3.649-1.421 3.731-1.852 5.699-5.645 5.253-9.866-.476-4.491-3.096-8.292-7.276-8.702-7.64-.749-15.35-.771-23.069-1.098v38.553h5.072v-16.84c1.49 0 2.764.116 4.011-.021 4.671-.513 8.055 1.363 10.471 5.312 1.657 2.707 3.478 5.313 5.157 8.009 2.735 4.387 2.751 4.419 9.001 3.364zm98.295.212c6.072 0 11.721.288 17.327-.075 6.48-.42 10.803-4.146 12.895-10.255 1.985-5.796 2.041-11.711.081-17.518-1.372-4.066-3.77-7.313-8.069-8.915-7.221-2.693-14.617-1.01-22.042-1.593-.086 1.108-.185 1.783-.185 2.457-.01 11.887-.007 23.775-.007 35.899zm67.302 56.473c0 1.375-.171 2.389.03 3.322.724 3.364-1.208 4.907-3.903 5.972-5.715 2.26-11.435 2.45-16.353-1.554-4.697-3.825-5.288-9.423-4.421-14.997 1.438-9.258 7.625-13.567 16.432-11.897 4.383.831 6.846 3.656 7.986 7.917l4.519-1.348c-.091-.605-.091-1.001-.21-1.355-2.342-6.941-7.146-9.979-15.744-9.967-8.486.012-14.574 4.242-17.246 11.986-3.01 8.717-.844 18.387 5.204 23.232 7.437 5.961 20.448 5.542 27.636-.914.414-.372.939-.923.947-1.397.072-4.512.043-9.025.043-13.571h-15.933v4.571h11.013zm36.021-94.185v37.602c5.724 0 11.26.182 16.779-.047 6.901-.284 11.117-4.323 13.198-10.633 2.094-6.349 1.888-12.717-.844-18.87-1.887-4.249-5.154-7.5-9.739-7.909-6.362-.567-12.814-.143-19.394-.143zM56.196 562.956c5.916 0 11.572.274 17.19-.071 6.673-.409 10.952-4.334 12.947-10.59 1.923-6.032 1.9-12.129-.443-18.079-1.735-4.407-4.772-7.995-9.505-8.595-6.619-.84-13.356-.736-20.188-1.043l-.001 38.378zm315.545-98.501c-.35-4.005-1.657-6.968-4.708-8.967-4.435-2.907-9.299-3.226-14.311-2.066-5.303 1.227-8.504 4.854-8.674 9.61-.169 4.715 2.49 8.123 7.906 9.821 3.685 1.156 7.452 2.048 11.158 3.137 2.817.828 4.901 2.551 4.713 5.697-.183 3.045-2.334 4.785-5.13 5.491-6.062 1.531-13.628.455-15.592-8.267-1.492.226-3.002.452-4.493.677.718 6.794 4.229 10.933 10.2 12.309 7.857 1.81 15.064-.245 18.326-5.233.271-.413.511-.853.716-1.302 2.63-5.758.229-11.629-6.065-13.941-4.172-1.533-8.564-2.457-12.84-3.718-2.249-.664-3.963-1.905-3.929-4.565.035-2.676 1.682-4.14 3.979-4.983 6.27-2.299 11.096-.097 14.288 6.55 1.315-.073 2.675-.149 4.456-.25zm136.057 27.013c-.39-1.151-.654-2.101-1.025-3.007-4.471-10.929-9.01-21.829-13.387-32.795-.724-1.814-1.653-2.324-3.495-2.324-1.893 0-3.09.335-3.812 2.344-2.28 6.348-4.759 12.625-7.161 18.928-2.145 5.625-4.293 11.248-6.457 16.918 5.16.911 5.254.857 6.895-3.658 2.686-7.394 2.686-7.394 10.535-7.393 7.904.001 7.904.001 10.853 7.582 1.708 4.394 1.86 4.473 7.054 3.405zm-76.559 71.286c-.081-.378-.108-.774-.25-1.124-4.767-11.769-9.58-23.519-14.292-35.309-.876-2.191-2.583-1.246-4.01-1.47-1.469-.229-2.34.273-2.891 1.778-1.977 5.402-4.1 10.751-6.149 16.127-2.538 6.659-5.059 13.325-7.603 20.028 5.233.812 5.273.787 6.956-3.926 2.594-7.267 2.594-7.267 10.037-7.267 8.149.002 8.149.002 11.175 7.583 1.804 4.519 1.804 4.519 7.027 3.58zm-226.395-76.142c-3.486-9.786-6.909-19.396-10.335-29.004-1.654-4.639-1.657-4.638-6.887-3.916.21.665.378 1.314.617 1.937 4.297 11.198 8.623 22.384 12.886 33.595.646 1.698 1.272 2.818 3.5 2.785 2.15-.032 3.142-.743 3.883-2.694 3.73-9.823 7.594-19.595 11.394-29.392.802-2.069 1.536-4.165 2.328-6.322-5.104-.419-5.117-.424-6.688 3.849-3.551 9.658-7.089 19.321-10.698 29.162zm-41.868-33.039v38.16h4.908v-38.16h-4.908zm129.753 68.826c5.808 1.119 6.118-4.34 9.325-6.796-7.107-.653-5.907-1.522-9.325 6.796z"/><path fill="#1C2F5C" d="M113.84 202.417l-3.604-22.535c-1.203-7.529-2.359-15.067-3.666-22.579-.163-.936-.968-1.908-1.731-2.567-5.863-5.06-11.835-9.992-17.647-15.107-.959-.844-1.74-2.348-1.859-3.616-1.262-13.425-2.347-26.867-3.579-40.294-.095-1.034-.691-2.277-1.465-2.956a2159.615 2159.615 0 00-23.22-20.062c-3.573-3.047-3.896-8.237-.066-11.116 2.788-2.096 6.053-4.057 9.394-4.824 10.206-2.345 20.478-4.715 30.858-5.919 17.918-2.079 35.953-3.129 53.91-4.907 16.378-1.621 32.723-3.585 49.07-5.506 4.454-.523 8.861-1.434 13.648-2.226-.079 7.961-2.769 14.235-6.423 20.176-5.302 8.62-12.484 15.601-19.567 22.721-13.355 13.426-27.309 26.371-36.868 43.071-6.657 11.629-11.499 24.047-16.282 36.512-5.503 14.339-11.623 28.394-20.903 41.734zM104.362 231.82c5.097 2.383 5.893 6.752 5.797 11.146-.15 6.93-.758 13.855-1.325 20.771-1.507 18.395.743 35.978 10.473 52.143 10.122 16.815 25.008 25.516 44.467 26.5 18.17.918 35.943-2.195 53.658-5.672 17.192-3.374 34.315-7.134 51.567-10.164 16.475-2.894 33.159-4.551 49.701-.759 8.736 2.003 17.321 4.906 25.727 8.063 11.542 4.334 23.464 6.158 35.633 7.426 9.628 1.004 19.168 2.934 28.701 4.701 2.157.4 4.298 1.571 6.144 2.831 3.555 2.426 3.53 5.579-.362 7.276-4.583 1.999-9.438 3.665-14.342 4.584-14.674 2.75-29.515 3.776-44.427 2.519-10.753-.907-20.841-4.588-30.959-8.035-11.41-3.887-23.044-7.113-35.163-5.939-12.702 1.231-25.354 3.196-37.944 5.33-19.135 3.244-38.132 7.346-57.312 10.262-16.362 2.486-32.817 2.423-48.872-2.725-23.801-7.632-40.796-23.484-53.205-44.598-4.356-7.412-4.693-15.861-3.784-24.28 1.404-12.999 6.148-25.108 9.94-37.487 2.223-7.256 3.623-14.764 5.397-22.158.114-.468.261-.927.49-1.735zM311.452 214.144c.866-9.477 1.744-18.952 2.595-28.43 1.442-16.069 3.463-32.116 4.106-48.218.488-12.229-3.66-23.979-6.424-35.836-1.767-7.58-2.817-15.341-3.88-23.063-.31-2.256.442-4.659.736-7.24l54.805 4.767-12.593 239.082-.87.093c-.52-3.214-1.101-6.42-1.549-9.645-1.771-12.75-3.573-25.523-7.926-37.691-1.777-4.97-4.345-9.74-7.135-14.24-2.346-3.786-6.125-5.681-10.856-5.586-4.659.093-7.353-3.037-8.606-6.979-1.245-3.915-1.631-8.103-2.394-12.17l-.009-14.844zM398.543 136.575c-.438-17.279 1.28-34.633-1.317-52.234l12.907-4.765.576 6.985c12.562-7.602 24.967-11.005 37.207.619 6.088-4.441 12.968-7.264 20.741-7.43 7.003-.149 13.555 1.007 17.503 7.727.87 1.48 1.165 3.299 1.725 4.962-.196.928-.56 1.856-.563 2.784-.04 11.789-.03 23.577-.021 35.366 0 .558.115 1.115.178 1.672l.409-.026v-39.78c.178 1.361.503 2.723.512 4.085.08 13.101.004 26.204.204 39.302.068 4.503.787 8.996 1.22 13.606h-15.422c2.889-16.715 1.454-33.567 1.436-50.363-.007-5.813-3.835-9.179-9.985-8.875-6.142.304-11.396 3.088-16.013 7.069-.254.219-.269.715-.396 1.083-1.762-1.768-.878.442-.879.671-.038 11.904-.03 23.809-.015 35.714 0 .182.15.363.533 1.226 0-11.346-.01-21.946.016-32.547.003-1.065.225-2.13.345-3.195.052 10.322-.03 20.647.205 30.965.138 5.995.785 11.978 1.217 18.16h-15.212c2.914-15.104 1.044-30.467 1.577-45.745.018-.496-.016-.994.005-1.49.421-10.514-5.538-13.699-14.701-10.985-4.045 1.198-7.604 4.03-11.384 6.121-.268.976-.765 1.951-.769 2.929-.051 13.247-.035 26.494-.026 39.741.001.476.098.952.194 1.835l.602-1.53 1.699 9.148h-15.877l1.589-11.023.894.747V93.669h-.401v2.305c.002 12.389.017 24.778-.018 37.167-.004 1.145-.323 2.289-.495 3.434zm78.443-34.998l-.278-.087v31.467l.278.001v-31.381zm-.227 35.309c.165-.292.339-.465.306-.578-.037-.127-.26-.2-.401-.297.025.244.053.489.095.875zm.049-37.047l.12-.398c-.072.021-.205.039-.205.063-.004.084.037.17.085.335zM510.06 97.527c-.45-1.278-.837-2.287-1.162-3.314-2.048-6.487-1.386-7.974 4.802-10.892 8.085-3.813 16.613-4.552 25.274-3.098 9.085 1.524 13.852 7.527 13.884 16.85.04 11.727.097 23.455-.031 35.18-.058 5.324.854 10.099 5.726 13.618-3.021 1.497-5.735 2.868-8.473 4.191-3.258 1.574-4.429 1.184-6.203-2.068-.604-1.108-1.096-2.279-1.718-3.587-6.45 5.694-13.828 7.575-22.14 6.151-9.131-1.565-14.5-9.413-13.422-19.66.896-8.531 5.624-14.258 13.429-16.89 6.031-2.034 12.483-2.824 18.751-4.157.457-.097.933-.112 1.574-.185 0-4.473.13-8.834-.042-13.184-.138-3.488-2.294-5.597-5.941-6.421-6.532-1.477-16.429-.206-24.308 7.466zm30.293 21.083c-6.387.178-12.251.942-17.403 4.351-4.343 2.873-6.015 8.095-4.229 12.772 1.647 4.313 6.106 6.643 11.445 5.981 5.297-.657 9.862-4.459 10.126-8.945.272-4.631.061-9.291.061-14.159z"/><path fill="#929395" d="M243.267 533.929c-.5.55-1.234 1.016-1.464 1.661-2.88 8.108-5.695 16.241-8.506 24.374-.568 1.644-.701 3.275-3.32 3.257-2.506-.019-2.848-1.428-3.419-3.152a3911.938 3911.938 0 00-8.961-26.719c-.17-.502-.686-.887-1.041-1.326-.215 1.015-.611 2.029-.616 3.045-.046 9.315-.025 18.632-.024 27.948h-3.986v-38.165c2.176 0 4.26-.188 6.277.1.734.104 1.617 1.234 1.906 2.077 3.335 9.744 6.57 19.524 10.042 29.927 1.313-3.727 2.468-6.915 3.562-10.123 2.081-6.103 4.272-12.175 6.124-18.348.843-2.809 2.063-4.283 5.141-3.664.854.172 1.771.026 2.795.026.129.675.329 1.229.33 1.784.018 11.426.023 22.851-.014 34.276-.002.694-.384 1.389-.588 2.083l-.561.003-.639-.019-.548.006-1.817.038.001-4.74c.001-7.999.005-15.998-.024-23.997-.003-.118-.425-.235-.65-.352zM325.198 491.488c-6.25 1.055-6.267 1.022-9.001-3.363-1.68-2.695-3.5-5.302-5.157-8.009-2.416-3.948-5.799-5.824-10.471-5.312-1.247.137-2.521.021-4.011.021v16.84h-5.072v-38.553c7.72.327 15.43.349 23.069 1.098 4.181.409 6.801 4.21 7.276 8.702.446 4.221-1.521 8.014-5.253 9.866-1.389.689-2.898 1.134-3.649 1.421 3.972 5.598 8.041 11.329 12.269 17.289zm-28.608-20.78c5.15-.261 10.069-.345 14.95-.821 2.947-.288 4.976-2.944 5.03-5.762.054-2.804-1.879-5.597-4.899-5.811-4.971-.353-9.985-.096-15.081-.096v12.49zM423.493 491.7c0-12.124-.003-24.012.007-35.899 0-.674.099-1.348.185-2.457 7.425.583 14.821-1.1 22.042 1.593 4.3 1.603 6.697 4.849 8.069 8.915 1.96 5.807 1.904 11.722-.081 17.518-2.092 6.108-6.414 9.835-12.895 10.255-5.606.363-11.255.075-17.327.075zm5.45-4.791c3.87 0 7.516.145 11.147-.034 4.95-.244 8.063-3.193 8.73-7.857.605-4.236.58-8.669.07-12.924-.417-3.478-2.767-6.489-6.343-7.157-4.398-.82-8.959-.769-13.605-1.106l.001 29.078zM490.795 548.173h-11.013v-4.571h15.933c0 4.546.029 9.06-.043 13.571-.008.475-.533 1.025-.947 1.397-7.188 6.456-20.199 6.875-27.636.914-6.048-4.846-8.214-14.516-5.204-23.232 2.672-7.744 8.76-11.975 17.246-11.986 8.598-.012 13.402 3.025 15.744 9.967.119.354.119.75.21 1.355l-4.519 1.348c-1.141-4.261-3.604-7.086-7.986-7.917-8.807-1.67-14.993 2.64-16.432 11.897-.867 5.574-.276 11.172 4.421 14.997 4.918 4.004 10.638 3.813 16.353 1.554 2.695-1.064 4.627-2.607 3.903-5.972-.201-.933-.03-1.947-.03-3.322zM526.816 453.988c6.579 0 13.031-.424 19.395.143 4.585.409 7.853 3.66 9.739 7.909 2.731 6.153 2.938 12.521.844 18.87-2.081 6.31-6.297 10.349-13.198 10.633-5.52.229-11.056.047-16.779.047l-.001-37.602zm4.642 32.7c4.883-.159 9.828.077 14.617-.679 1.81-.285 3.866-2.571 4.757-4.445 2.516-5.297 2.672-10.961.725-16.522-1.217-3.479-3.55-6.109-7.45-6.452-4.138-.363-8.309-.355-12.465-.51-.271.779-.773 1.557-.779 2.339a1898.71 1898.71 0 00-.008 24.104c.003.722.393 1.443.603 2.165zM56.196 562.956v-38.378c6.832.307 13.57.203 20.188 1.043 4.733.6 7.771 4.188 9.505 8.595 2.343 5.95 2.367 12.047.443 18.079-1.995 6.256-6.273 10.181-12.947 10.59-5.617.345-11.273.071-17.189.071zm5.034-33.345c-.329.727-.937 1.451-.943 2.18-.068 8.086-.068 16.173-.005 24.259.006.748.57 1.492.875 2.237 3.572.009 7.148.131 10.715-.004 4.942-.187 7.98-2.177 9.143-7.002.907-3.767 1.341-7.893.825-11.702-.988-7.29-4.364-9.828-11.675-9.981-2.977-.063-5.957.006-8.935.013zM371.741 464.455c-1.781.101-3.142.177-4.454.25-3.192-6.647-8.019-8.85-14.288-6.55-2.298.843-3.944 2.307-3.979 4.983-.034 2.661 1.68 3.902 3.929 4.565 4.275 1.262 8.668 2.186 12.84 3.718 6.295 2.312 8.695 8.183 6.065 13.941a9.803 9.803 0 01-.716 1.302c-3.262 4.988-10.469 7.043-18.326 5.233-5.972-1.376-9.482-5.515-10.2-12.309 1.491-.225 3.001-.451 4.493-.677 1.964 8.722 9.53 9.798 15.592 8.267 2.796-.706 4.947-2.446 5.13-5.491.188-3.146-1.896-4.869-4.713-5.697-3.706-1.089-7.474-1.981-11.158-3.137-5.416-1.698-8.075-5.106-7.906-9.821.17-4.756 3.371-8.383 8.674-9.61 5.012-1.16 9.876-.841 14.311 2.066 3.049 1.999 4.357 4.962 4.706 8.967zM246.927 458.085l-.009 11.747c.885.249 1.767.702 2.656.716 4.737.072 9.475.003 14.212.058 1.136.014 2.976-.58 2.674 1.539-.083.583-1.646 1.333-2.547 1.359-4.734.136-9.475.033-14.211.091-.928.011-1.851.361-2.777.556v12.967H269.8v4.547h-28.143v-38.06h27.264v3.879c-6.414-.007-12.829-.04-19.243.005-.919.007-1.834.388-2.751.596zM507.798 491.468c-5.193 1.068-5.346.989-7.055-3.404-2.948-7.581-2.948-7.581-10.853-7.582-7.85-.001-7.85-.001-10.535 7.393-1.641 4.516-1.734 4.569-6.895 3.658 2.164-5.671 4.313-11.294 6.457-16.918 2.402-6.304 4.881-12.581 7.161-18.928.722-2.009 1.919-2.344 3.812-2.344 1.842 0 2.771.51 3.495 2.324 4.377 10.966 8.916 21.866 13.387 32.795.372.905.636 1.854 1.026 3.006zm-24.075-15.797h12.255l-6.238-16.928c-2.045 5.748-3.993 11.232-6.017 16.928zM114.636 454.532c5.596 8.28 11.192 16.561 16.791 24.839.718 1.061 1.451 2.111 2.178 3.167l-.025-.04.638.011c.191-.93.536-1.858.548-2.791.058-4.556.027-9.112.027-13.668v-11.576h4.138v36.905c-4.129 1.236-4.839.995-7.121-2.416-5.953-8.904-11.902-17.812-17.853-26.718-.405.958-1.149 1.911-1.162 2.875-.097 7.626-.032 15.254-.077 22.882-.007 1.135.595 3.011-1.512 2.703-.611-.09-1.388-1.825-1.398-2.813-.102-10.203-.067-20.406-.053-30.609.001-.854.134-1.708.222-2.751h4.659zM431.239 562.754c-5.224.939-5.224.939-7.026-3.578-3.025-7.581-3.025-7.581-11.175-7.583-7.443 0-7.443 0-10.037 7.267-1.683 4.713-1.723 4.737-6.956 3.926 2.544-6.703 5.064-13.369 7.603-20.028 2.05-5.376 4.173-10.725 6.149-16.127.551-1.505 1.422-2.008 2.891-1.778 1.427.224 3.134-.722 4.01 1.47 4.712 11.79 9.525 23.54 14.292 35.309.141.347.168.744.249 1.122zm-11.642-15.544l-6.313-17.173c-2.11 6-4.057 11.533-6.039 17.173h12.352zM121.655 524.938h26.625v4.498h-22.06v11.503h20.503v4.763H125.78l.68 12.966c.981.263 1.959.737 2.943.75 5.437.075 10.875.004 16.312.069.891.01 1.777.447 2.666.687l-1.032 2.806-4.833.005c-2.128-.179-4.259-.528-6.385-.501-4.016.052-8.028.321-12.042.5l-2.42.04-.014-38.086zM534.98 551.52c-.922 2.508-1.865 5.008-2.761 7.525-1.587 4.461-1.575 4.465-6.798 3.79 2.029-5.411 4.015-10.776 6.051-16.123 2.537-6.662 5.05-13.336 7.752-19.932.355-.865 1.721-1.724 2.701-1.832 1.478-.162 3.291-.828 4.216 1.503 4.714 11.875 9.553 23.7 14.335 35.549.102.252.041.568.057.851-5.283.704-5.273.7-7.089-4.006-.962-2.491-1.967-4.966-2.953-7.448-.454-.29-.905-.822-1.365-.83-4.198-.068-8.398-.08-12.596-.004-.522.008-1.033.623-1.55.957zm1.626-4.327h12.353l-6.31-17.184-6.043 17.184zM288.136 551.447c-.948 2.491-1.933 4.968-2.835 7.475-1.607 4.464-1.586 4.472-6.936 3.944l14.443-37.817c5.443-.513 5.438-.511 7.427 4.356 4.046 9.901 8.102 19.798 12.141 29.701.479 1.177.882 2.385 1.328 3.601-5.254 1.066-5.394.999-7.229-3.713-.971-2.491-1.913-4.994-2.868-7.491-.147-.251-.292-.72-.442-.721-4.87-.058-9.739-.077-14.608-.059-.141.002-.28.473-.421.724zm13.873-4.176l-6.36-17.309-6.074 17.309h12.434zM80.5 481.908l.184-1.219c.341-.908.968-1.812.979-2.724.083-6.935.038-13.872.052-20.808.002-1.238-.35-2.667 1.743-2.693 2.048-.025 1.833 1.315 1.833 2.609-.001 6.242-.025 12.485.022 18.728.008 1.036.336 2.07.516 3.106.063 7.404-3.945 12.291-11.29 13.222-2.801.355-5.791.308-8.542-.275-5.111-1.084-8.896-4.408-9.163-9.669-.48-9.459-.135-18.961-.135-28.613h4.735c0 7.556-.028 14.969.021 22.381.011 1.774.146 3.57.458 5.314.628 3.513 2.826 5.499 6.321 6.231 5.076 1.063 9.208-.412 11.927-4.412.114-.392.227-.785.339-1.178zM204.844 486.612c3.609-9.841 7.147-19.504 10.699-29.162 1.571-4.273 1.583-4.268 6.688-3.849-.792 2.157-1.525 4.253-2.328 6.322-3.8 9.796-7.664 19.568-11.394 29.392-.741 1.951-1.733 2.662-3.883 2.694-2.228.033-2.854-1.087-3.5-2.785-4.263-11.211-8.589-22.397-12.886-33.595-.239-.623-.407-1.272-.617-1.937 5.229-.723 5.233-.724 6.887 3.916 3.425 9.609 6.847 19.218 10.334 29.004zM162.976 453.573h4.908v38.16h-4.908v-38.16zM353.717 562.983l-8.984.026-.014-38.055 3.618-.018c-.008 10.221-.033 20.443.008 30.665.004.915.433 1.828.664 2.743a.562.562 0 01.37.386c1.013.24 2.02.667 3.035.688 3.962.08 7.926-.006 11.887.064.796.015 1.584.446 2.376.685l-1.032 2.812-3.64.003-8.288.001zM400.145 458.027l-.001 28.701-.923 3.865c-2.372.772-3.256.055-3.232-2.463.098-10.308.107-20.618-.002-30.925-.03-2.873 1.176-3.134 3.255-2.417.335 1.206.619 2.222.903 3.239z"/><path fill="#818185" d="M114.636 454.532h-4.659c-.088 1.044-.221 1.897-.222 2.751-.015 10.203-.049 20.406.053 30.609.01.987.787 2.723 1.398 2.813 2.107.308 1.505-1.568 1.512-2.703.045-7.628-.02-15.256.077-22.882.012-.964.756-1.917 1.162-2.875v29.36h-4.679v-38.489l5.358 1.416zM400.145 458.027l-.903-3.238c-2.079-.717-3.285-.457-3.255 2.417.109 10.307.1 20.617.002 30.925-.023 2.518.86 3.235 3.232 2.463l.923-3.865v4.903h-4.885V453.7h4.886v4.327zM246.924 474.15c.926-.194 1.849-.545 2.777-.556 4.737-.058 9.477.045 14.211-.091.902-.026 2.464-.776 2.547-1.359.302-2.118-1.538-1.525-2.674-1.539-4.737-.055-9.476.014-14.212-.058-.889-.014-1.771-.467-2.656-.716h20.528v4.318l-20.521.001zM138.93 454.474h-4.138v11.576c0 4.556.031 9.112-.027 13.668-.012.933-.357 1.861-.548 2.791l-.638-.011.025.04c.123-2.757.331-5.513.351-8.269.051-6.829.017-13.659.017-21.287l4.958 1.492zM85.83 478.908c-.18-1.036-.507-2.07-.516-3.106-.048-6.242-.023-12.485-.022-18.728 0-1.294.214-2.635-1.833-2.609-2.093.026-1.741 1.455-1.743 2.693-.015 6.936.031 13.873-.052 20.808-.011.912-.638 1.815-.979 2.724v-27.052h5.146l-.001 25.27z"/><path fill="#929395" d="M292.729 522.399c3.418-8.318 2.218-7.449 9.325-6.796-3.207 2.457-3.517 7.916-9.325 6.796z"/><path fill="#121442" d="M398.543 136.575c.172-1.145.491-2.289.495-3.435.034-12.389.02-24.778.018-37.167v-2.305h.401v45.435l-.894-.747-.02-1.781zM411.152 140.232l-.602 1.53c-.097-.883-.193-1.359-.194-1.835-.009-13.247-.024-26.494.026-39.741.004-.978.501-1.953.769-2.929.037 13.832.075 27.665.105 41.497.002.493-.067.985-.104 1.478zM449.444 100.23c-.12 1.065-.342 2.129-.345 3.195-.025 10.601-.016 21.201-.016 32.547-.383-.862-.533-1.044-.533-1.226-.016-11.905-.023-23.81.015-35.714.001-.229-.883-2.438.879-.671v1.869z"/><path fill="#818185" d="M121.655 524.938l.014 38.085c-.219-.573-.627-1.146-.629-1.721a5330.572 5330.572 0 01-.002-34.632c.002-.578.402-1.155.617-1.732zM344.719 524.955l.014 38.055c-.217-.585-.621-1.168-.623-1.753a5448.502 5448.502 0 01-.002-34.543c.001-.587.398-1.172.611-1.759zM349.009 558.346c-.231-.915-.66-1.828-.664-2.743-.041-10.222-.016-20.444-.008-30.665.227.964.646 1.928.651 2.893.044 10.171.024 20.343.021 30.515zM215.915 563.017c-.001-9.316-.022-18.633.024-27.948.005-1.016.401-2.03.616-3.045.025 9.671.064 19.341.044 29.011-.001.66-.445 1.32-.684 1.982zM288.136 551.447c.141-.251.28-.723.421-.724 4.869-.019 9.738.001 14.608.059.15.001.294.47.442.721l-15.471-.056zM243.267 533.929c.225.117.647.234.647.353.03 7.999.026 15.998.024 23.997l-.001 4.74c-.247-.662-.709-1.324-.71-1.986-.024-9.036.016-18.07.04-27.104zM534.98 551.52c.517-.334 1.027-.948 1.55-.957 4.197-.076 8.397-.064 12.596.004.46.008.911.54 1.365.83l-15.511.123zM147.35 562.979l1.032-2.807c-.889-.239-1.774-.677-2.666-.687-5.437-.065-10.875.006-16.312-.069-.984-.013-1.962-.487-2.943-.75h22.755c-.837 1.555 2.105 4.095-1.866 4.313zM365.645 562.98l1.032-2.812c-.792-.238-1.58-.67-2.376-.685-3.961-.07-7.925.016-11.887-.064-1.016-.021-2.022-.448-3.035-.688l18.355-.001c-.807 1.619 1.891 4.302-2.089 4.25zM246.927 458.085c.917-.208 1.832-.589 2.75-.596 6.414-.045 12.829-.013 19.243-.005-.68.214-1.359.609-2.041.613-6.65.033-13.301.002-19.952-.012zM124.089 562.982c4.014-.179 8.026-.448 12.042-.5 2.125-.027 4.256.322 6.385.501l-18.427-.001z"/><path fill="#121442" d="M311.452 214.144l.01 14.844-.01-14.844z"/><path fill="#818185" d="M353.717 562.983h8.288-8.288zM80.5 481.908l-.339 1.179.339-1.179zM245.754 562.98l.548-.006-.273.048-.275-.042zM246.941 562.993l.561-.003-.28.055-.281-.052z"/><path fill="#121442" d="M487.889 92.455v39.78l-.409.026c-.063-.557-.178-1.115-.178-1.672-.01-11.789-.02-23.577.021-35.366.003-.928.366-1.856.563-2.784l.003.016zM476.986 101.577v31.381l-.278-.001V101.49l.278.087zM476.759 136.886l-.096-.875c.142.097.364.169.401.297.034.113-.14.286-.305.578zM476.808 99.839c-.048-.166-.089-.251-.085-.335 0-.024.133-.042.205-.063l-.12.398z"/><path fill="#F9F9FA" d="M540.353 118.61c0 4.868.212 9.528-.061 14.159-.264 4.486-4.829 8.288-10.126 8.945-5.339.662-9.798-1.668-11.445-5.981-1.786-4.677-.114-9.899 4.229-12.772 5.152-3.409 11.016-4.173 17.403-4.351zM296.59 470.708v-12.49c5.096 0 10.11-.257 15.081.096 3.021.214 4.953 3.007 4.899 5.811-.055 2.818-2.083 5.475-5.03 5.762-4.881.475-9.8.559-14.95.821z"/><path fill="#FEFEFE" d="M428.943 486.909V457.83c4.646.337 9.207.287 13.605 1.106 3.576.667 5.926 3.679 6.343 7.157.51 4.255.535 8.688-.07 12.924-.667 4.664-3.78 7.613-8.73 7.857-3.632.18-7.278.035-11.148.035z"/><path fill="#F9F9FA" d="M531.642 458.08c4.156.154 8.327.146 12.465.51 3.9.343 6.233 2.973 7.45 6.452 1.947 5.561 1.791 11.226-.725 16.522-.891 1.874-2.947 4.16-4.757 4.445-4.789.756-9.734.52-14.617.679l.184-28.608z"/><path fill="#818185" d="M531.642 458.08l-.184 28.608c-.21-.723-.6-1.443-.604-2.166-.044-8.035-.05-16.07.008-24.104.006-.781.508-1.559.78-2.338z"/><path fill="#FEFEFE" d="M61.23 529.611c2.979-.008 5.958-.076 8.935-.014 7.311.153 10.687 2.691 11.675 9.981.517 3.81.083 7.936-.825 11.702-1.163 4.825-4.201 6.815-9.143 7.002-3.567.135-7.143.013-10.714.004l.072-28.675z"/><path fill="#818185" d="M61.23 529.611l-.072 28.676c-.306-.745-.87-1.489-.876-2.237-.063-8.086-.063-16.173.005-24.259.006-.728.614-1.453.943-2.18z"/><path fill="#F9F9FA" d="M483.723 475.671l6.017-16.928 6.238 16.928h-12.255z"/><path fill="#FEFEFE" d="M133.579 482.498l.638.011-.638-.011z"/><path fill="#F9F9FA" d="M419.597 547.21h-12.353c1.982-5.64 3.929-11.173 6.039-17.173l6.314 17.173zM536.606 547.193l6.043-17.184c2.069 5.638 4.132 11.254 6.31 17.184h-12.353zM302.009 547.271h-12.434l6.074-17.309c2.075 5.646 4.142 11.269 6.36 17.309z"/></g></svg>