<?xml version="1.0" encoding="utf-8"?>
<!-- Generator: Adobe Illustrator 16.0.0, SVG Export Plug-In . SVG Version: 6.00 Build 0)  -->
<!DOCTYPE svg PUBLIC "-//W3C//DTD SVG 1.0//EN" "http://www.w3.org/TR/2001/REC-SVG-20010904/DTD/svg10.dtd">
<svg version="1.0" id="Layer_1" xmlns="http://www.w3.org/2000/svg" xmlns:xlink="http://www.w3.org/1999/xlink" x="0px" y="0px"
	 width="610.75px" height="610.75px" viewBox="0 0 610.75 610.75" enable-background="new 0 0 610.75 610.75" xml:space="preserve">
<g>
	<path fill-rule="evenodd" clip-rule="evenodd" fill="#FEFEFE" d="M610.75,610.75c-203.583,0-407.167,0-610.75,0
		C0,407.167,0,203.583,0,0c203.583,0,407.167,0,610.75,0C610.75,203.583,610.75,407.167,610.75,610.75z M400.144,486.729
		c0.001-9.566,0.001-19.134,0.001-28.701c0-1.443,0-2.887,0-4.327c-1.841,0-3.362,0-4.886,0c0,12.741,0,25.267,0,37.932
		c1.718,0,3.244,0,4.885,0C400.144,489.875,400.144,488.303,400.144,486.729z M349.378,558.73c-0.058-0.189-0.181-0.318-0.369-0.385
		c0.003-10.172,0.023-20.344-0.021-30.516c-0.005-0.965-0.425-1.929-0.651-2.893c-1.206,0.005-2.412,0.012-3.618,0.018
		c-0.213,0.587-0.609,1.172-0.611,1.759c-0.036,11.515-0.035,23.028,0.002,34.543c0.002,0.585,0.406,1.168,0.623,1.753
		c2.995-0.009,5.989-0.018,8.984-0.026c2.763,0,5.525,0,8.288,0c1.213-0.001,2.427-0.002,3.64-0.003
		c3.98,0.052,1.282-2.632,2.09-4.25C361.332,558.73,355.354,558.73,349.378,558.73z M85.83,478.908c0-8.375,0-16.748,0-25.271
		c-1.597,0-3.033,0-5.146,0c0,9.114,0,18.083,0,27.052c-0.062,0.406-0.122,0.813-0.184,1.219c-0.113,0.393-0.227,0.786-0.34,1.18
		c-2.718,3.999-6.85,5.475-11.926,4.411c-3.495-0.732-5.692-2.719-6.321-6.231c-0.312-1.744-0.447-3.54-0.458-5.314
		c-0.049-7.412-0.021-14.825-0.021-22.381c-1.884,0-3.414,0-4.735,0c0,9.652-0.345,19.154,0.135,28.613
		c0.267,5.261,4.052,8.585,9.163,9.669c2.751,0.583,5.741,0.631,8.542,0.275C81.885,491.199,85.893,486.313,85.83,478.908z
		 M288.136,551.447c5.157,0.019,10.314,0.037,15.471,0.056c0.955,2.497,1.897,5,2.868,7.491c1.835,4.712,1.975,4.779,7.229,3.713
		c-0.446-1.216-0.849-2.424-1.328-3.601c-4.039-9.903-8.095-19.8-12.141-29.701c-1.989-4.867-1.984-4.869-7.427-4.356
		c-4.777,12.508-9.589,25.106-14.443,37.817c5.35,0.527,5.329,0.52,6.936-3.944C286.204,556.415,287.188,553.938,288.136,551.447z
		 M534.98,551.52c5.171-0.041,10.341-0.081,15.512-0.122c0.985,2.481,1.99,4.956,2.952,7.447c1.815,4.706,1.806,4.71,7.089,4.006
		c-0.016-0.282,0.045-0.599-0.057-0.851c-4.782-11.849-9.621-23.674-14.335-35.549c-0.925-2.331-2.738-1.665-4.216-1.503
		c-0.98,0.108-2.346,0.967-2.701,1.832c-2.702,6.596-5.215,13.27-7.752,19.932c-2.036,5.347-4.021,10.712-6.051,16.123
		c5.223,0.675,5.211,0.671,6.798-3.79C533.115,556.527,534.059,554.027,534.98,551.52z M147.35,562.979
		c3.972-0.219,1.03-2.759,1.866-4.313c-7.892,0-15.323,0-22.755,0c-0.22-4.198-0.44-8.396-0.679-12.966c7.306,0,14.094,0,20.943,0
		c0-1.704,0-3.051,0-4.763c-6.92,0-13.703,0-20.503,0c0-3.973,0-7.574,0-11.503c7.521,0,14.81,0,22.06,0c0-1.678,0-3.018,0-4.498
		c-9.008,0-17.817,0-26.625,0c-0.215,0.577-0.615,1.154-0.617,1.732c-0.036,11.544-0.035,23.088,0.002,34.632
		c0.002,0.574,0.41,1.147,0.629,1.721c0.807-0.013,1.613-0.026,2.42-0.04c6.143,0.001,12.284,0.001,18.427,0.001
		C144.127,562.982,145.738,562.98,147.35,562.979z M138.93,454.474c-1.487-0.447-2.975-0.895-4.958-1.491
		c0,7.628,0.034,14.458-0.017,21.287c-0.021,2.756-0.229,5.512-0.352,8.269c-0.726-1.056-1.459-2.106-2.177-3.167
		c-5.599-8.278-11.194-16.559-16.791-24.839c-1.73-0.457-3.46-0.914-5.358-1.416c0,13.313,0,25.871,0,38.489
		c1.586,0,3.003,0,4.679,0c0-9.929,0-19.645,0-29.36c5.951,8.906,11.9,17.813,17.853,26.718c2.281,3.411,2.992,3.652,7.121,2.416
		C138.93,479.089,138.93,466.781,138.93,454.474z M246.917,469.833c0.003-3.916,0.006-7.831,0.009-11.747
		c6.651,0.014,13.302,0.045,19.953,0.011c0.681-0.003,1.361-0.399,2.041-0.613c0-1.259,0-2.517,0-3.879c-9.208,0-18.186,0-27.264,0
		c0,12.777,0,25.351,0,38.06c9.487,0,18.838,0,28.143,0c0-1.6,0-2.943,0-4.547c-7.732,0-15.247,0-22.875,0c0-4.496,0-8.731,0-12.967
		c6.864,0,13.727,0,20.521,0c0-1.673,0-2.92,0-4.318C260.488,469.833,253.703,469.833,246.917,469.833z M215.915,563.017
		c0.239-0.661,0.683-1.321,0.684-1.982c0.02-9.67-0.019-19.34-0.044-29.011c0.355,0.439,0.871,0.824,1.041,1.326
		c3.017,8.896,6.009,17.801,8.961,26.719c0.572,1.725,0.914,3.134,3.419,3.152c2.619,0.019,2.751-1.613,3.32-3.257
		c2.811-8.133,5.626-16.266,8.506-24.374c0.229-0.646,0.964-1.111,1.464-1.661c-0.024,9.034-0.063,18.068-0.04,27.104
		c0.001,0.662,0.463,1.324,0.71,1.986c0.606-0.013,1.211-0.025,1.817-0.038l0.274,0.042l0.273-0.049
		c0.213,0.007,0.426,0.013,0.639,0.02l0.281,0.052l0.28-0.055c0.205-0.694,0.586-1.389,0.589-2.083
		c0.038-11.426,0.032-22.851,0.014-34.276c-0.001-0.555-0.2-1.109-0.33-1.784c-1.024,0-1.941,0.146-2.795-0.026
		c-3.078-0.619-4.298,0.855-5.141,3.664c-1.852,6.173-4.042,12.245-6.124,18.348c-1.094,3.208-2.249,6.396-3.562,10.123
		c-3.473-10.402-6.707-20.183-10.042-29.927c-0.289-0.843-1.172-1.973-1.906-2.077c-2.017-0.287-4.101-0.1-6.277-0.1
		c0,12.884,0,25.442,0,38.165C213.375,563.017,214.645,563.017,215.915,563.017z M487.889,92.455l-0.004-0.016
		c-0.56-1.663-0.854-3.481-1.725-4.962c-3.948-6.72-10.5-7.876-17.503-7.727c-7.773,0.166-14.653,2.989-20.741,7.43
		c-12.24-11.625-24.646-8.221-37.207-0.619c-0.197-2.397-0.375-4.539-0.576-6.985c-4.659,1.72-9.059,3.344-12.907,4.765
		c2.598,17.601,0.88,34.955,1.317,52.234c0.007,0.594,0.014,1.187,0.021,1.781c-0.53,3.682-1.062,7.364-1.589,11.024
		c5.186,0,10.543,0,15.877,0c-0.59-3.181-1.145-6.164-1.699-9.148c0.037-0.493,0.105-0.985,0.104-1.478
		c-0.03-13.833-0.068-27.665-0.105-41.498c3.78-2.09,7.339-4.923,11.384-6.121c9.163-2.714,15.122,0.471,14.701,10.985
		c-0.021,0.496,0.013,0.994-0.005,1.49c-0.533,15.278,1.337,30.641-1.577,45.745c5.256,0,10.533,0,15.212,0
		c-0.432-6.182-1.079-12.165-1.217-18.16c-0.235-10.318-0.153-20.643-0.205-30.965c0-0.623,0-1.246,0-1.869
		c0.127-0.367,0.142-0.863,0.396-1.083c4.617-3.981,9.871-6.765,16.013-7.069c6.15-0.304,9.979,3.062,9.985,8.875
		c0.019,16.795,1.453,33.647-1.436,50.363c5.13,0,10.447,0,15.422,0c-0.433-4.61-1.151-9.103-1.22-13.606
		c-0.2-13.099-0.124-26.201-0.204-39.302C488.392,95.178,488.066,93.816,487.889,92.455z M311.452,214.144
		c0.003,4.948,0.006,9.896,0.01,14.844c0.763,4.068,1.148,8.256,2.394,12.17c1.254,3.942,3.947,7.072,8.606,6.979
		c4.731-0.095,8.511,1.801,10.856,5.586c2.79,4.5,5.357,9.271,7.135,14.24c4.353,12.168,6.154,24.941,7.926,37.691
		c0.448,3.224,1.029,6.431,1.549,9.645c0.29-0.031,0.58-0.062,0.87-0.093c4.197-79.678,8.394-159.356,12.593-239.082
		c-18.273-1.589-36.362-3.163-54.805-4.767c-0.294,2.581-1.046,4.983-0.736,7.24c1.063,7.722,2.113,15.483,3.88,23.063
		c2.764,11.857,6.912,23.607,6.424,35.836c-0.644,16.102-2.664,32.148-4.106,48.218
		C313.196,195.192,312.318,204.667,311.452,214.144z M113.84,202.417c9.28-13.34,15.4-27.395,20.903-41.734
		c4.783-12.464,9.625-24.883,16.282-36.512c9.559-16.7,23.513-29.645,36.868-43.071c7.083-7.12,14.265-14.102,19.567-22.721
		c3.654-5.941,6.344-12.215,6.423-20.176c-4.787,0.792-9.194,1.703-13.648,2.226c-16.347,1.92-32.692,3.885-49.07,5.506
		c-17.957,1.777-35.991,2.828-53.91,4.907c-10.38,1.204-20.652,3.574-30.858,5.919c-3.341,0.768-6.606,2.729-9.394,4.824
		c-3.831,2.878-3.507,8.068,0.066,11.116c7.782,6.638,15.533,13.314,23.22,20.062c0.773,0.679,1.37,1.921,1.465,2.956
		c1.232,13.428,2.317,26.869,3.579,40.294c0.119,1.269,0.9,2.772,1.859,3.616c5.812,5.116,11.785,10.048,17.647,15.107
		c0.764,0.659,1.569,1.632,1.731,2.567c1.307,7.512,2.463,15.049,3.666,22.579C111.407,187.207,112.579,194.531,113.84,202.417z
		 M104.362,231.82c-0.229,0.808-0.375,1.267-0.488,1.734c-1.774,7.394-3.175,14.902-5.397,22.158
		c-3.792,12.378-8.536,24.488-9.94,37.487c-0.909,8.419-0.572,16.868,3.784,24.28c12.408,21.113,29.404,36.965,53.205,44.598
		c16.055,5.148,32.51,5.211,48.872,2.725c19.18-2.916,38.177-7.018,57.312-10.262c12.59-2.134,25.242-4.099,37.944-5.33
		c12.118-1.174,23.752,2.052,35.163,5.939c10.118,3.447,20.206,7.128,30.959,8.035c14.912,1.258,29.753,0.232,44.427-2.519
		c4.904-0.919,9.759-2.585,14.342-4.584c3.893-1.697,3.917-4.85,0.362-7.276c-1.846-1.26-3.986-2.431-6.144-2.831
		c-9.533-1.767-19.073-3.697-28.701-4.701c-12.169-1.269-24.091-3.092-35.633-7.426c-8.405-3.157-16.99-6.06-25.727-8.063
		c-16.542-3.792-33.226-2.135-49.701,0.759c-17.251,3.03-34.375,6.79-51.567,10.164c-17.715,3.477-35.488,6.59-53.658,5.672
		c-19.459-0.984-34.346-9.685-44.467-26.5c-9.73-16.165-11.98-33.748-10.473-52.143c0.567-6.915,1.175-13.84,1.325-20.771
		C110.254,238.572,109.458,234.203,104.362,231.82z M510.06,97.527c7.88-7.672,17.776-8.943,24.308-7.466
		c3.647,0.824,5.804,2.933,5.941,6.421c0.172,4.35,0.042,8.711,0.042,13.184c-0.642,0.073-1.117,0.087-1.574,0.185
		c-6.268,1.333-12.72,2.124-18.751,4.157c-7.805,2.631-12.532,8.358-13.429,16.89c-1.078,10.247,4.291,18.095,13.422,19.66
		c8.312,1.424,15.689-0.457,22.14-6.151c0.622,1.308,1.113,2.479,1.718,3.587c1.774,3.252,2.945,3.642,6.203,2.068
		c2.737-1.323,5.451-2.694,8.473-4.191c-4.871-3.519-5.783-8.294-5.726-13.618c0.128-11.726,0.071-23.454,0.031-35.18
		c-0.032-9.323-4.799-15.326-13.884-16.85c-8.661-1.454-17.189-0.715-25.274,3.098c-6.188,2.918-6.85,4.405-4.802,10.892
		C509.223,95.241,509.609,96.249,510.06,97.527z M325.198,491.488c-4.229-5.96-8.297-11.691-12.269-17.29
		c0.751-0.287,2.261-0.732,3.649-1.421c3.731-1.852,5.699-5.645,5.253-9.866c-0.476-4.491-3.096-8.292-7.276-8.702
		c-7.64-0.749-15.35-0.771-23.069-1.098c0,13.342,0,25.982,0,38.553c1.78,0,3.313,0,5.072,0c0-5.673,0-11.103,0-16.84
		c1.49,0,2.764,0.116,4.011-0.021c4.671-0.513,8.055,1.363,10.471,5.312c1.657,2.707,3.478,5.313,5.157,8.009
		C318.932,492.511,318.948,492.543,325.198,491.488z M423.493,491.7c6.072,0,11.721,0.288,17.327-0.075
		c6.48-0.42,10.803-4.146,12.895-10.255c1.985-5.796,2.041-11.711,0.081-17.518c-1.372-4.066-3.77-7.313-8.069-8.915
		c-7.221-2.693-14.617-1.01-22.042-1.593c-0.086,1.108-0.185,1.783-0.185,2.457C423.49,467.688,423.493,479.576,423.493,491.7z
		 M490.795,548.173c0,1.375-0.171,2.389,0.03,3.322c0.724,3.364-1.208,4.907-3.903,5.972c-5.715,2.26-11.435,2.45-16.353-1.554
		c-4.697-3.825-5.288-9.423-4.421-14.997c1.438-9.258,7.625-13.567,16.432-11.897c4.383,0.831,6.846,3.656,7.986,7.917
		c1.684-0.502,3.066-0.915,4.519-1.348c-0.091-0.605-0.091-1.001-0.21-1.355c-2.342-6.941-7.146-9.979-15.744-9.967
		c-8.486,0.012-14.574,4.242-17.246,11.986c-3.01,8.717-0.844,18.387,5.204,23.232c7.437,5.961,20.448,5.542,27.636-0.914
		c0.414-0.372,0.939-0.923,0.947-1.397c0.072-4.512,0.043-9.025,0.043-13.571c-5.596,0-10.717,0-15.933,0c0,1.579,0,2.983,0,4.571
		C483.466,548.173,486.918,548.173,490.795,548.173z M526.816,453.988c0,12.499,0,25.061,0,37.602c5.724,0,11.26,0.182,16.779-0.047
		c6.901-0.284,11.117-4.323,13.198-10.633c2.094-6.349,1.888-12.717-0.844-18.87c-1.887-4.249-5.154-7.5-9.739-7.909
		C539.848,453.564,533.396,453.988,526.816,453.988z M56.196,562.956c5.916,0,11.572,0.274,17.19-0.071
		c6.673-0.409,10.952-4.334,12.947-10.59c1.923-6.032,1.9-12.129-0.443-18.079c-1.735-4.407-4.772-7.995-9.505-8.595
		c-6.619-0.84-13.356-0.736-20.188-1.043C56.196,537.704,56.196,550.179,56.196,562.956z M371.741,464.455
		c-0.35-4.005-1.657-6.968-4.708-8.967c-4.435-2.907-9.299-3.226-14.311-2.066c-5.303,1.227-8.504,4.854-8.674,9.61
		c-0.169,4.715,2.49,8.123,7.906,9.821c3.685,1.156,7.452,2.048,11.158,3.137c2.817,0.828,4.901,2.551,4.713,5.697
		c-0.183,3.045-2.334,4.785-5.13,5.491c-6.062,1.531-13.628,0.455-15.592-8.267c-1.492,0.226-3.002,0.452-4.493,0.677
		c0.718,6.794,4.229,10.933,10.2,12.309c7.857,1.81,15.064-0.245,18.326-5.233c0.271-0.413,0.511-0.853,0.716-1.302
		c2.63-5.758,0.229-11.629-6.065-13.941c-4.172-1.533-8.564-2.457-12.84-3.718c-2.249-0.664-3.963-1.905-3.929-4.565
		c0.035-2.676,1.682-4.14,3.979-4.983c6.27-2.299,11.096-0.097,14.288,6.55C368.6,464.632,369.96,464.556,371.741,464.455z
		 M507.798,491.468c-0.39-1.151-0.654-2.101-1.025-3.007c-4.471-10.929-9.01-21.829-13.387-32.795
		c-0.724-1.814-1.653-2.324-3.495-2.324c-1.893,0-3.09,0.335-3.812,2.344c-2.28,6.348-4.759,12.625-7.161,18.928
		c-2.145,5.625-4.293,11.248-6.457,16.918c5.16,0.911,5.254,0.857,6.895-3.658c2.686-7.394,2.686-7.394,10.535-7.393
		c7.904,0.001,7.904,0.001,10.853,7.582C502.452,492.457,502.604,492.536,507.798,491.468z M431.239,562.754
		c-0.081-0.378-0.108-0.774-0.25-1.124c-4.767-11.769-9.58-23.519-14.292-35.309c-0.876-2.191-2.583-1.246-4.01-1.47
		c-1.469-0.229-2.34,0.273-2.891,1.778c-1.977,5.402-4.1,10.751-6.149,16.127c-2.538,6.659-5.059,13.325-7.603,20.028
		c5.233,0.812,5.273,0.787,6.956-3.926c2.594-7.267,2.594-7.267,10.037-7.267c8.149,0.002,8.149,0.002,11.175,7.583
		C426.016,563.693,426.016,563.693,431.239,562.754z M204.844,486.612c-3.486-9.786-6.909-19.396-10.335-29.004
		c-1.654-4.639-1.657-4.638-6.887-3.916c0.21,0.665,0.378,1.314,0.617,1.937c4.297,11.198,8.623,22.384,12.886,33.595
		c0.646,1.698,1.272,2.818,3.5,2.785c2.15-0.032,3.142-0.743,3.883-2.694c3.73-9.823,7.594-19.595,11.394-29.392
		c0.802-2.069,1.536-4.165,2.328-6.322c-5.104-0.419-5.117-0.424-6.688,3.849C211.991,467.108,208.453,476.771,204.844,486.612z
		 M162.976,453.573c0,12.79,0,25.409,0,38.16c1.707,0,3.234,0,4.908,0c0-12.797,0-25.416,0-38.16
		C166.166,453.573,164.635,453.573,162.976,453.573z M292.729,522.399c5.808,1.119,6.118-4.34,9.325-6.796
		C294.947,514.95,296.147,514.081,292.729,522.399z"/>
	<path fill-rule="evenodd" clip-rule="evenodd" fill="#1C2F5C" d="M113.84,202.417c-1.261-7.886-2.433-15.21-3.604-22.535
		c-1.203-7.529-2.359-15.067-3.666-22.579c-0.163-0.936-0.968-1.908-1.731-2.567c-5.863-5.06-11.835-9.992-17.647-15.107
		c-0.959-0.844-1.74-2.348-1.859-3.616c-1.262-13.425-2.347-26.867-3.579-40.294c-0.095-1.034-0.691-2.277-1.465-2.956
		c-7.687-6.748-15.438-13.424-23.22-20.062c-3.573-3.047-3.896-8.237-0.066-11.116c2.788-2.096,6.053-4.057,9.394-4.824
		c10.206-2.345,20.478-4.715,30.858-5.919c17.918-2.079,35.953-3.129,53.91-4.907c16.378-1.621,32.723-3.585,49.07-5.506
		c4.454-0.523,8.861-1.434,13.648-2.226c-0.079,7.961-2.769,14.235-6.423,20.176c-5.302,8.62-12.484,15.601-19.567,22.721
		c-13.355,13.426-27.309,26.371-36.868,43.071c-6.657,11.629-11.499,24.047-16.282,36.512
		C129.24,175.022,123.12,189.077,113.84,202.417z"/>
	<path fill-rule="evenodd" clip-rule="evenodd" fill="#1C2F5C" d="M104.362,231.82c5.097,2.383,5.893,6.752,5.797,11.146
		c-0.15,6.93-0.758,13.855-1.325,20.771c-1.507,18.395,0.743,35.978,10.473,52.143c10.122,16.815,25.008,25.516,44.467,26.5
		c18.17,0.918,35.943-2.195,53.658-5.672c17.192-3.374,34.315-7.134,51.567-10.164c16.475-2.894,33.159-4.551,49.701-0.759
		c8.736,2.003,17.321,4.906,25.727,8.063c11.542,4.334,23.464,6.158,35.633,7.426c9.628,1.004,19.168,2.934,28.701,4.701
		c2.157,0.4,4.298,1.571,6.144,2.831c3.555,2.426,3.53,5.579-0.362,7.276c-4.583,1.999-9.438,3.665-14.342,4.584
		c-14.674,2.75-29.515,3.776-44.427,2.519c-10.753-0.907-20.841-4.588-30.959-8.035c-11.41-3.887-23.044-7.113-35.163-5.939
		c-12.702,1.231-25.354,3.196-37.944,5.33c-19.135,3.244-38.132,7.346-57.312,10.262c-16.362,2.486-32.817,2.423-48.872-2.725
		c-23.801-7.632-40.796-23.484-53.205-44.598c-4.356-7.412-4.693-15.861-3.784-24.28c1.404-12.999,6.148-25.108,9.94-37.487
		c2.223-7.256,3.623-14.764,5.397-22.158C103.986,233.087,104.133,232.628,104.362,231.82z"/>
	<path fill-rule="evenodd" clip-rule="evenodd" fill="#1C2F5C" d="M311.452,214.144c0.866-9.477,1.744-18.952,2.595-28.43
		c1.442-16.069,3.463-32.116,4.106-48.218c0.488-12.229-3.66-23.979-6.424-35.836c-1.767-7.58-2.817-15.341-3.88-23.063
		c-0.31-2.256,0.442-4.659,0.736-7.24c18.442,1.604,36.531,3.178,54.805,4.767c-4.199,79.726-8.396,159.404-12.593,239.082
		c-0.29,0.031-0.58,0.063-0.87,0.093c-0.52-3.214-1.101-6.42-1.549-9.645c-1.771-12.75-3.573-25.523-7.926-37.691
		c-1.777-4.97-4.345-9.74-7.135-14.24c-2.346-3.786-6.125-5.681-10.856-5.586c-4.659,0.093-7.353-3.037-8.606-6.979
		c-1.245-3.915-1.631-8.103-2.394-12.17C311.458,224.04,311.455,219.091,311.452,214.144z"/>
	<path fill-rule="evenodd" clip-rule="evenodd" fill="#1C2F5C" d="M398.543,136.575c-0.438-17.279,1.28-34.633-1.317-52.234
		c3.849-1.42,8.248-3.045,12.907-4.765c0.201,2.446,0.379,4.588,0.576,6.985c12.562-7.602,24.967-11.005,37.207,0.619
		c6.088-4.441,12.968-7.264,20.741-7.43c7.003-0.149,13.555,1.007,17.503,7.727c0.87,1.48,1.165,3.299,1.725,4.962
		c-0.196,0.928-0.56,1.856-0.563,2.784c-0.04,11.789-0.03,23.577-0.021,35.366c0,0.558,0.115,1.115,0.178,1.672
		c0.137-0.009,0.272-0.017,0.409-0.026c0-13.26,0-26.521,0-39.78c0.178,1.361,0.503,2.723,0.512,4.085
		c0.08,13.101,0.004,26.204,0.204,39.302c0.068,4.503,0.787,8.996,1.22,13.606c-4.975,0-10.292,0-15.422,0
		c2.889-16.715,1.454-33.567,1.436-50.363c-0.007-5.813-3.835-9.179-9.985-8.875c-6.142,0.304-11.396,3.088-16.013,7.069
		c-0.254,0.219-0.269,0.715-0.396,1.083c-1.762-1.768-0.878,0.442-0.879,0.671c-0.038,11.904-0.03,23.809-0.015,35.714
		c0,0.182,0.15,0.363,0.533,1.226c0-11.346-0.01-21.946,0.016-32.547c0.003-1.065,0.225-2.13,0.345-3.195
		c0.052,10.322-0.03,20.647,0.205,30.965c0.138,5.995,0.785,11.978,1.217,18.16c-4.679,0-9.956,0-15.212,0
		c2.914-15.104,1.044-30.467,1.577-45.745c0.018-0.496-0.016-0.994,0.005-1.49c0.421-10.514-5.538-13.699-14.701-10.985
		c-4.045,1.198-7.604,4.03-11.384,6.121c-0.268,0.976-0.765,1.951-0.769,2.929c-0.051,13.247-0.035,26.494-0.026,39.741
		c0.001,0.476,0.098,0.952,0.194,1.835c0.319-0.811,0.461-1.17,0.602-1.53c0.555,2.984,1.109,5.967,1.699,9.148
		c-5.334,0-10.691,0-15.877,0c0.527-3.66,1.059-7.342,1.589-11.023c0.273,0.229,0.547,0.457,0.894,0.747c0-15.23,0-30.333,0-45.435
		c-0.134,0-0.268,0-0.401,0c0,0.769,0,1.537,0,2.305c0.002,12.389,0.017,24.778-0.018,37.167
		C399.034,134.286,398.715,135.43,398.543,136.575z M476.986,101.577c-0.093-0.029-0.186-0.058-0.278-0.087
		c0,10.489,0,20.978,0,31.467c0.093,0,0.186,0.001,0.278,0.001C476.986,122.498,476.986,112.038,476.986,101.577z M476.759,136.886
		c0.165-0.292,0.339-0.465,0.306-0.578c-0.037-0.127-0.26-0.2-0.401-0.297C476.689,136.255,476.717,136.5,476.759,136.886z
		 M476.808,99.839c0.054-0.178,0.087-0.288,0.12-0.398c-0.072,0.021-0.205,0.039-0.205,0.063
		C476.719,99.588,476.76,99.674,476.808,99.839z"/>
	<path fill-rule="evenodd" clip-rule="evenodd" fill="#1C2F5C" d="M510.06,97.527c-0.45-1.278-0.837-2.287-1.162-3.314
		c-2.048-6.487-1.386-7.974,4.802-10.892c8.085-3.813,16.613-4.552,25.274-3.098c9.085,1.524,13.852,7.527,13.884,16.85
		c0.04,11.727,0.097,23.455-0.031,35.18c-0.058,5.324,0.854,10.099,5.726,13.618c-3.021,1.497-5.735,2.868-8.473,4.191
		c-3.258,1.574-4.429,1.184-6.203-2.068c-0.604-1.108-1.096-2.279-1.718-3.587c-6.45,5.694-13.828,7.575-22.14,6.151
		c-9.131-1.565-14.5-9.413-13.422-19.66c0.896-8.531,5.624-14.258,13.429-16.89c6.031-2.034,12.483-2.824,18.751-4.157
		c0.457-0.097,0.933-0.112,1.574-0.185c0-4.473,0.13-8.834-0.042-13.184c-0.138-3.488-2.294-5.597-5.941-6.421
		C527.836,88.584,517.939,89.855,510.06,97.527z M540.353,118.61c-6.387,0.178-12.251,0.942-17.403,4.351
		c-4.343,2.873-6.015,8.095-4.229,12.772c1.647,4.313,6.106,6.643,11.445,5.981c5.297-0.657,9.862-4.459,10.126-8.945
		C540.564,128.138,540.353,123.478,540.353,118.61z"/>
	<path fill-rule="evenodd" clip-rule="evenodd" fill="#929395" d="M243.267,533.929c-0.5,0.55-1.234,1.016-1.464,1.661
		c-2.88,8.108-5.695,16.241-8.506,24.374c-0.568,1.644-0.701,3.275-3.32,3.257c-2.506-0.019-2.848-1.428-3.419-3.152
		c-2.953-8.918-5.944-17.823-8.961-26.719c-0.17-0.502-0.686-0.887-1.041-1.326c-0.215,1.015-0.611,2.029-0.616,3.045
		c-0.046,9.315-0.025,18.632-0.024,27.948c-1.27,0-2.541,0-3.986,0c0-12.723,0-25.281,0-38.165c2.176,0,4.26-0.188,6.277,0.1
		c0.734,0.104,1.617,1.234,1.906,2.077c3.335,9.744,6.57,19.524,10.042,29.927c1.313-3.727,2.468-6.915,3.562-10.123
		c2.081-6.103,4.272-12.175,6.124-18.348c0.843-2.809,2.063-4.283,5.141-3.664c0.854,0.172,1.771,0.026,2.795,0.026
		c0.129,0.675,0.329,1.229,0.33,1.784c0.018,11.426,0.023,22.851-0.014,34.276c-0.002,0.694-0.384,1.389-0.588,2.083
		c-0.187,0-0.374,0.002-0.561,0.003c-0.213-0.007-0.426-0.013-0.639-0.019c-0.183,0.002-0.365,0.003-0.548,0.006
		c-0.605,0.013-1.211,0.025-1.817,0.038c0-1.579,0.001-3.16,0.001-4.74c0.001-7.999,0.005-15.998-0.024-23.997
		C243.914,534.163,243.492,534.046,243.267,533.929z"/>
	<path fill-rule="evenodd" clip-rule="evenodd" fill="#929395" d="M325.198,491.488c-6.25,1.055-6.267,1.022-9.001-3.363
		c-1.68-2.695-3.5-5.302-5.157-8.009c-2.416-3.948-5.799-5.824-10.471-5.312c-1.247,0.137-2.521,0.021-4.011,0.021
		c0,5.737,0,11.167,0,16.84c-1.759,0-3.292,0-5.072,0c0-12.571,0-25.211,0-38.553c7.72,0.327,15.43,0.349,23.069,1.098
		c4.181,0.409,6.801,4.21,7.276,8.702c0.446,4.221-1.521,8.014-5.253,9.866c-1.389,0.689-2.898,1.134-3.649,1.421
		C316.901,479.797,320.97,485.528,325.198,491.488z M296.59,470.708c5.15-0.261,10.069-0.345,14.95-0.821
		c2.947-0.288,4.976-2.944,5.03-5.762c0.054-2.804-1.879-5.597-4.899-5.811c-4.971-0.353-9.985-0.096-15.081-0.096
		C296.59,462.31,296.59,466.149,296.59,470.708z"/>
	<path fill-rule="evenodd" clip-rule="evenodd" fill="#929395" d="M423.493,491.7c0-12.124-0.003-24.012,0.007-35.899
		c0-0.674,0.099-1.348,0.185-2.457c7.425,0.583,14.821-1.1,22.042,1.593c4.3,1.603,6.697,4.849,8.069,8.915
		c1.96,5.807,1.904,11.722-0.081,17.518c-2.092,6.108-6.414,9.835-12.895,10.255C435.214,491.988,429.565,491.7,423.493,491.7z
		 M428.943,486.909c3.87,0,7.516,0.145,11.147-0.034c4.95-0.244,8.063-3.193,8.73-7.857c0.605-4.236,0.58-8.669,0.07-12.924
		c-0.417-3.478-2.767-6.489-6.343-7.157c-4.398-0.82-8.959-0.769-13.605-1.106C428.943,467.913,428.943,477.316,428.943,486.909z"/>
	<path fill-rule="evenodd" clip-rule="evenodd" fill="#929395" d="M490.795,548.173c-3.877,0-7.329,0-11.013,0
		c0-1.588,0-2.992,0-4.571c5.216,0,10.337,0,15.933,0c0,4.546,0.029,9.06-0.043,13.571c-0.008,0.475-0.533,1.025-0.947,1.397
		c-7.188,6.456-20.199,6.875-27.636,0.914c-6.048-4.846-8.214-14.516-5.204-23.232c2.672-7.744,8.76-11.975,17.246-11.986
		c8.598-0.012,13.402,3.025,15.744,9.967c0.119,0.354,0.119,0.75,0.21,1.355c-1.452,0.433-2.835,0.846-4.519,1.348
		c-1.141-4.261-3.604-7.086-7.986-7.917c-8.807-1.67-14.993,2.64-16.432,11.897c-0.867,5.574-0.276,11.172,4.421,14.997
		c4.918,4.004,10.638,3.813,16.353,1.554c2.695-1.064,4.627-2.607,3.903-5.972C490.624,550.562,490.795,549.548,490.795,548.173z"/>
	<path fill-rule="evenodd" clip-rule="evenodd" fill="#929395" d="M526.816,453.988c6.579,0,13.031-0.424,19.395,0.143
		c4.585,0.409,7.853,3.66,9.739,7.909c2.731,6.153,2.938,12.521,0.844,18.87c-2.081,6.31-6.297,10.349-13.198,10.633
		c-5.52,0.229-11.056,0.047-16.779,0.047C526.816,479.049,526.816,466.487,526.816,453.988z M531.458,486.688
		c4.883-0.159,9.828,0.077,14.617-0.679c1.81-0.285,3.866-2.571,4.757-4.445c2.516-5.297,2.672-10.961,0.725-16.522
		c-1.217-3.479-3.55-6.109-7.45-6.452c-4.138-0.363-8.309-0.355-12.465-0.51c-0.271,0.779-0.773,1.557-0.779,2.339
		c-0.058,8.034-0.052,16.068-0.008,24.104C530.858,485.245,531.248,485.966,531.458,486.688z"/>
	<path fill-rule="evenodd" clip-rule="evenodd" fill="#929395" d="M56.196,562.956c0-12.777,0-25.252,0-38.378
		c6.832,0.307,13.57,0.203,20.188,1.043c4.733,0.6,7.771,4.188,9.505,8.595c2.343,5.95,2.367,12.047,0.443,18.079
		c-1.995,6.256-6.273,10.181-12.947,10.59C67.768,563.23,62.112,562.956,56.196,562.956z M61.23,529.611
		c-0.329,0.727-0.937,1.451-0.943,2.18c-0.068,8.086-0.068,16.173-0.005,24.259c0.006,0.748,0.57,1.492,0.875,2.237
		c3.572,0.009,7.148,0.131,10.715-0.004c4.942-0.187,7.98-2.177,9.143-7.002c0.907-3.767,1.341-7.893,0.825-11.702
		c-0.988-7.29-4.364-9.828-11.675-9.981C67.188,529.535,64.208,529.604,61.23,529.611z"/>
	<path fill-rule="evenodd" clip-rule="evenodd" fill="#929395" d="M371.741,464.455c-1.781,0.101-3.142,0.177-4.454,0.25
		c-3.192-6.647-8.019-8.85-14.288-6.55c-2.298,0.843-3.944,2.307-3.979,4.983c-0.034,2.661,1.68,3.902,3.929,4.565
		c4.275,1.262,8.668,2.186,12.84,3.718c6.295,2.312,8.695,8.183,6.065,13.941c-0.205,0.449-0.445,0.889-0.716,1.302
		c-3.262,4.988-10.469,7.043-18.326,5.233c-5.972-1.376-9.482-5.515-10.2-12.309c1.491-0.225,3.001-0.451,4.493-0.677
		c1.964,8.722,9.53,9.798,15.592,8.267c2.796-0.706,4.947-2.446,5.13-5.491c0.188-3.146-1.896-4.869-4.713-5.697
		c-3.706-1.089-7.474-1.981-11.158-3.137c-5.416-1.698-8.075-5.106-7.906-9.821c0.17-4.756,3.371-8.383,8.674-9.61
		c5.012-1.16,9.876-0.841,14.311,2.066C370.084,457.487,371.392,460.45,371.741,464.455z"/>
	<path fill-rule="evenodd" clip-rule="evenodd" fill="#929395" d="M246.927,458.085c-0.003,3.916-0.006,7.832-0.009,11.747
		c0.885,0.249,1.767,0.702,2.656,0.716c4.737,0.072,9.475,0.003,14.212,0.058c1.136,0.014,2.976-0.58,2.674,1.539
		c-0.083,0.583-1.646,1.333-2.547,1.359c-4.734,0.136-9.475,0.033-14.211,0.091c-0.928,0.011-1.851,0.361-2.777,0.556
		c0,4.235,0,8.471,0,12.967c7.628,0,15.143,0,22.875,0c0,1.604,0,2.947,0,4.547c-9.304,0-18.655,0-28.143,0
		c0-12.709,0-25.283,0-38.06c9.079,0,18.056,0,27.264,0c0,1.362,0,2.621,0,3.879c-6.414-0.007-12.829-0.04-19.243,0.005
		C248.759,457.496,247.844,457.877,246.927,458.085z"/>
	<path fill-rule="evenodd" clip-rule="evenodd" fill="#929395" d="M507.798,491.468c-5.193,1.068-5.346,0.989-7.055-3.404
		c-2.948-7.581-2.948-7.581-10.853-7.582c-7.85-0.001-7.85-0.001-10.535,7.393c-1.641,4.516-1.734,4.569-6.895,3.658
		c2.164-5.671,4.313-11.294,6.457-16.918c2.402-6.304,4.881-12.581,7.161-18.928c0.722-2.009,1.919-2.344,3.812-2.344
		c1.842,0,2.771,0.51,3.495,2.324c4.377,10.966,8.916,21.866,13.387,32.795C507.144,489.367,507.408,490.316,507.798,491.468z
		 M483.723,475.671c4.17,0,8.045,0,12.255,0c-2.161-5.865-4.183-11.351-6.238-16.928
		C487.695,464.491,485.747,469.975,483.723,475.671z"/>
	<path fill-rule="evenodd" clip-rule="evenodd" fill="#929395" d="M114.636,454.532c5.596,8.28,11.192,16.561,16.791,24.839
		c0.718,1.061,1.451,2.111,2.178,3.167l-0.025-0.04c0.212,0.004,0.425,0.008,0.638,0.011c0.191-0.93,0.536-1.858,0.548-2.791
		c0.058-4.556,0.027-9.112,0.027-13.668c0-3.735,0-7.47,0-11.576c1.625,0,2.882,0,4.138,0c0,12.308,0,24.615,0,36.905
		c-4.129,1.236-4.839,0.995-7.121-2.416c-5.953-8.904-11.902-17.812-17.853-26.718c-0.405,0.958-1.149,1.911-1.162,2.875
		c-0.097,7.626-0.032,15.254-0.077,22.882c-0.007,1.135,0.595,3.011-1.512,2.703c-0.611-0.09-1.388-1.825-1.398-2.813
		c-0.102-10.203-0.067-20.406-0.053-30.609c0.001-0.854,0.134-1.708,0.222-2.751C111.694,454.532,113.165,454.532,114.636,454.532z"
		/>
	<path fill-rule="evenodd" clip-rule="evenodd" fill="#929395" d="M431.239,562.754c-5.224,0.939-5.224,0.939-7.026-3.578
		c-3.025-7.581-3.025-7.581-11.175-7.583c-7.443,0-7.443,0-10.037,7.267c-1.683,4.713-1.723,4.737-6.956,3.926
		c2.544-6.703,5.064-13.369,7.603-20.028c2.05-5.376,4.173-10.725,6.149-16.127c0.551-1.505,1.422-2.008,2.891-1.778
		c1.427,0.224,3.134-0.722,4.01,1.47c4.712,11.79,9.525,23.54,14.292,35.309C431.131,561.979,431.158,562.376,431.239,562.754z
		 M419.597,547.21c-2.15-5.85-4.183-11.377-6.313-17.173c-2.11,6-4.057,11.533-6.039,17.173
		C411.515,547.21,415.332,547.21,419.597,547.21z"/>
	<path fill-rule="evenodd" clip-rule="evenodd" fill="#929395" d="M121.655,524.938c8.809,0,17.617,0,26.625,0
		c0,1.48,0,2.82,0,4.498c-7.25,0-14.539,0-22.06,0c0,3.929,0,7.53,0,11.503c6.8,0,13.583,0,20.503,0c0,1.712,0,3.059,0,4.763
		c-6.849,0-13.637,0-20.943,0c0.239,4.569,0.459,8.768,0.68,12.966c0.981,0.263,1.959,0.737,2.943,0.75
		c5.437,0.075,10.875,0.004,16.312,0.069c0.891,0.01,1.777,0.447,2.666,0.687c-0.344,0.936-0.688,1.871-1.032,2.806
		c-1.611,0.002-3.223,0.004-4.833,0.005c-2.128-0.179-4.259-0.528-6.385-0.501c-4.016,0.052-8.028,0.321-12.042,0.5
		c-0.807,0.014-1.613,0.027-2.42,0.04C121.665,550.327,121.66,537.632,121.655,524.938z"/>
	<path fill-rule="evenodd" clip-rule="evenodd" fill="#929395" d="M534.98,551.52c-0.922,2.508-1.865,5.008-2.761,7.525
		c-1.587,4.461-1.575,4.465-6.798,3.79c2.029-5.411,4.015-10.776,6.051-16.123c2.537-6.662,5.05-13.336,7.752-19.932
		c0.355-0.865,1.721-1.724,2.701-1.832c1.478-0.162,3.291-0.828,4.216,1.503c4.714,11.875,9.553,23.7,14.335,35.549
		c0.102,0.252,0.041,0.568,0.057,0.851c-5.283,0.704-5.273,0.7-7.089-4.006c-0.962-2.491-1.967-4.966-2.953-7.448
		c-0.454-0.29-0.905-0.822-1.365-0.83c-4.198-0.068-8.398-0.08-12.596-0.004C536.008,550.571,535.497,551.186,534.98,551.52z
		 M536.606,547.193c4.221,0,8.092,0,12.353,0c-2.178-5.93-4.24-11.546-6.31-17.184C540.627,535.761,538.666,541.337,536.606,547.193
		z"/>
	<path fill-rule="evenodd" clip-rule="evenodd" fill="#929395" d="M288.136,551.447c-0.948,2.491-1.933,4.968-2.835,7.475
		c-1.607,4.464-1.586,4.472-6.936,3.944c4.854-12.711,9.666-25.31,14.443-37.817c5.443-0.513,5.438-0.511,7.427,4.356
		c4.046,9.901,8.102,19.798,12.141,29.701c0.479,1.177,0.882,2.385,1.328,3.601c-5.254,1.066-5.394,0.999-7.229-3.713
		c-0.971-2.491-1.913-4.994-2.868-7.491c-0.147-0.251-0.292-0.72-0.442-0.721c-4.87-0.058-9.739-0.077-14.608-0.059
		C288.416,550.725,288.277,551.196,288.136,551.447z M302.009,547.271c-2.219-6.039-4.285-11.662-6.36-17.309
		c-2.024,5.769-4.003,11.405-6.074,17.309C293.892,547.271,297.721,547.271,302.009,547.271z"/>
	<path fill-rule="evenodd" clip-rule="evenodd" fill="#929395" d="M80.5,481.908c0.062-0.406,0.122-0.813,0.184-1.219
		c0.341-0.908,0.968-1.812,0.979-2.724c0.083-6.935,0.038-13.872,0.052-20.808c0.002-1.238-0.35-2.667,1.743-2.693
		c2.048-0.025,1.833,1.315,1.833,2.609c-0.001,6.242-0.025,12.485,0.022,18.728c0.008,1.036,0.336,2.07,0.516,3.106
		c0.063,7.404-3.945,12.291-11.29,13.222c-2.801,0.355-5.791,0.308-8.542-0.275c-5.111-1.084-8.896-4.408-9.163-9.669
		c-0.48-9.459-0.135-18.961-0.135-28.613c1.321,0,2.852,0,4.735,0c0,7.556-0.028,14.969,0.021,22.381
		c0.011,1.774,0.146,3.57,0.458,5.314c0.628,3.513,2.826,5.499,6.321,6.231c5.076,1.063,9.208-0.412,11.927-4.412
		C80.275,482.694,80.388,482.301,80.5,481.908z"/>
	<path fill-rule="evenodd" clip-rule="evenodd" fill="#929395" d="M204.844,486.612c3.609-9.841,7.147-19.504,10.699-29.162
		c1.571-4.273,1.583-4.268,6.688-3.849c-0.792,2.157-1.525,4.253-2.328,6.322c-3.8,9.796-7.664,19.568-11.394,29.392
		c-0.741,1.951-1.733,2.662-3.883,2.694c-2.228,0.033-2.854-1.087-3.5-2.785c-4.263-11.211-8.589-22.397-12.886-33.595
		c-0.239-0.623-0.407-1.272-0.617-1.937c5.229-0.723,5.233-0.724,6.887,3.916C197.935,467.217,201.357,476.826,204.844,486.612z"/>
	<path fill-rule="evenodd" clip-rule="evenodd" fill="#929395" d="M162.976,453.573c1.659,0,3.19,0,4.908,0
		c0,12.744,0,25.363,0,38.16c-1.673,0-3.201,0-4.908,0C162.976,478.981,162.976,466.363,162.976,453.573z"/>
	<path fill-rule="evenodd" clip-rule="evenodd" fill="#929395" d="M353.717,562.983c-2.995,0.009-5.989,0.018-8.984,0.026
		c-0.005-12.686-0.01-25.37-0.014-38.055c1.206-0.006,2.412-0.013,3.618-0.018c-0.008,10.221-0.033,20.443,0.008,30.665
		c0.004,0.915,0.433,1.828,0.664,2.743c0.188,0.066,0.312,0.195,0.37,0.386c1.013,0.24,2.02,0.667,3.035,0.688
		c3.962,0.08,7.926-0.006,11.887,0.064c0.796,0.015,1.584,0.446,2.376,0.685c-0.345,0.938-0.688,1.874-1.032,2.812
		c-1.213,0.001-2.427,0.002-3.64,0.003C359.242,562.983,356.479,562.983,353.717,562.983z"/>
	<path fill-rule="evenodd" clip-rule="evenodd" fill="#929395" d="M400.145,458.027c0,9.567,0,19.135-0.001,28.701
		c-0.309,1.294-0.617,2.587-0.923,3.865c-2.372,0.772-3.256,0.055-3.232-2.463c0.098-10.308,0.107-20.618-0.002-30.925
		c-0.03-2.873,1.176-3.134,3.255-2.417C399.577,455.994,399.861,457.01,400.145,458.027z"/>
	<path fill-rule="evenodd" clip-rule="evenodd" fill="#818185" d="M114.636,454.532c-1.471,0-2.941,0-4.659,0
		c-0.088,1.044-0.221,1.897-0.222,2.751c-0.015,10.203-0.049,20.406,0.053,30.609c0.01,0.987,0.787,2.723,1.398,2.813
		c2.107,0.308,1.505-1.568,1.512-2.703c0.045-7.628-0.02-15.256,0.077-22.882c0.012-0.964,0.756-1.917,1.162-2.875
		c0,9.716,0,19.432,0,29.36c-1.676,0-3.093,0-4.679,0c0-12.618,0-25.176,0-38.489C111.176,453.618,112.906,454.075,114.636,454.532z
		"/>
	<path fill-rule="evenodd" clip-rule="evenodd" fill="#818185" d="M400.145,458.027c-0.283-1.017-0.567-2.033-0.903-3.238
		c-2.079-0.717-3.285-0.457-3.255,2.417c0.109,10.307,0.1,20.617,0.002,30.925c-0.023,2.518,0.86,3.235,3.232,2.463
		c0.306-1.278,0.614-2.571,0.923-3.865c0,1.574,0,3.146,0,4.903c-1.641,0-3.167,0-4.885,0c0-12.665,0-25.191,0-37.932
		c1.523,0,3.045,0,4.886,0C400.145,455.14,400.145,456.584,400.145,458.027z"/>
	<path fill-rule="evenodd" clip-rule="evenodd" fill="#818185" d="M246.924,474.15c0.926-0.194,1.849-0.545,2.777-0.556
		c4.737-0.058,9.477,0.045,14.211-0.091c0.902-0.026,2.464-0.776,2.547-1.359c0.302-2.118-1.538-1.525-2.674-1.539
		c-4.737-0.055-9.476,0.014-14.212-0.058c-0.889-0.014-1.771-0.467-2.656-0.716c6.786,0,13.571,0,20.528,0c0,1.398,0,2.645,0,4.318
		C260.651,474.15,253.788,474.15,246.924,474.15z"/>
	<path fill-rule="evenodd" clip-rule="evenodd" fill="#818185" d="M138.93,454.474c-1.256,0-2.513,0-4.138,0
		c0,4.106,0,7.841,0,11.576c0,4.556,0.031,9.112-0.027,13.668c-0.012,0.933-0.357,1.861-0.548,2.791
		c-0.213-0.003-0.425-0.007-0.638-0.011l0.025,0.04c0.123-2.757,0.331-5.513,0.351-8.269c0.051-6.829,0.017-13.659,0.017-21.287
		C135.955,453.579,137.443,454.026,138.93,454.474z"/>
	<path fill-rule="evenodd" clip-rule="evenodd" fill="#818185" d="M85.83,478.908c-0.18-1.036-0.507-2.07-0.516-3.106
		c-0.048-6.242-0.023-12.485-0.022-18.728c0-1.294,0.214-2.635-1.833-2.609c-2.093,0.026-1.741,1.455-1.743,2.693
		c-0.015,6.936,0.031,13.873-0.052,20.808c-0.011,0.912-0.638,1.815-0.979,2.724c0-8.969,0-17.938,0-27.052c2.113,0,3.549,0,5.146,0
		C85.83,462.16,85.83,470.534,85.83,478.908z"/>
	<path fill-rule="evenodd" clip-rule="evenodd" fill="#929395" d="M292.729,522.399c3.418-8.318,2.218-7.449,9.325-6.796
		C298.847,518.06,298.537,523.519,292.729,522.399z"/>
	<path fill-rule="evenodd" clip-rule="evenodd" fill="#121442" d="M398.543,136.575c0.172-1.145,0.491-2.289,0.495-3.435
		c0.034-12.389,0.02-24.778,0.018-37.167c0-0.768,0-1.537,0-2.305c0.134,0,0.268,0,0.401,0c0,15.102,0,30.204,0,45.435
		c-0.347-0.29-0.62-0.518-0.894-0.747C398.557,137.762,398.55,137.169,398.543,136.575z"/>
	<path fill-rule="evenodd" clip-rule="evenodd" fill="#121442" d="M411.152,140.232c-0.141,0.359-0.282,0.719-0.602,1.53
		c-0.097-0.883-0.193-1.359-0.194-1.835c-0.009-13.247-0.024-26.494,0.026-39.741c0.004-0.978,0.501-1.953,0.769-2.929
		c0.037,13.832,0.075,27.665,0.105,41.497C411.258,139.247,411.189,139.739,411.152,140.232z"/>
	<path fill-rule="evenodd" clip-rule="evenodd" fill="#121442" d="M449.444,100.23c-0.12,1.065-0.342,2.129-0.345,3.195
		c-0.025,10.601-0.016,21.201-0.016,32.547c-0.383-0.862-0.533-1.044-0.533-1.226c-0.016-11.905-0.023-23.81,0.015-35.714
		c0.001-0.229-0.883-2.438,0.879-0.671C449.444,98.985,449.444,99.607,449.444,100.23z"/>
	<path fill-rule="evenodd" clip-rule="evenodd" fill="#818185" d="M121.655,524.938c0.005,12.694,0.009,25.39,0.014,38.085
		c-0.219-0.573-0.627-1.146-0.629-1.721c-0.038-11.544-0.039-23.088-0.002-34.632C121.04,526.092,121.44,525.515,121.655,524.938z"
		/>
	<path fill-rule="evenodd" clip-rule="evenodd" fill="#818185" d="M344.719,524.955c0.004,12.685,0.009,25.369,0.014,38.055
		c-0.217-0.585-0.621-1.168-0.623-1.753c-0.037-11.515-0.038-23.028-0.002-34.543C344.109,526.127,344.506,525.542,344.719,524.955z
		"/>
	<path fill-rule="evenodd" clip-rule="evenodd" fill="#818185" d="M349.009,558.346c-0.231-0.915-0.66-1.828-0.664-2.743
		c-0.041-10.222-0.016-20.444-0.008-30.665c0.227,0.964,0.646,1.928,0.651,2.893C349.032,538.002,349.012,548.174,349.009,558.346z"
		/>
	<path fill-rule="evenodd" clip-rule="evenodd" fill="#818185" d="M215.915,563.017c-0.001-9.316-0.022-18.633,0.024-27.948
		c0.005-1.016,0.401-2.03,0.616-3.045c0.025,9.671,0.064,19.341,0.044,29.011C216.598,561.695,216.154,562.355,215.915,563.017z"/>
	<path fill-rule="evenodd" clip-rule="evenodd" fill="#818185" d="M288.136,551.447c0.141-0.251,0.28-0.723,0.421-0.724
		c4.869-0.019,9.738,0.001,14.608,0.059c0.15,0.001,0.294,0.47,0.442,0.721C298.45,551.484,293.293,551.466,288.136,551.447z"/>
	<path fill-rule="evenodd" clip-rule="evenodd" fill="#818185" d="M243.267,533.929c0.225,0.117,0.647,0.234,0.647,0.353
		c0.03,7.999,0.026,15.998,0.024,23.997c0,1.58,0,3.161-0.001,4.74c-0.247-0.662-0.709-1.324-0.71-1.986
		C243.203,551.997,243.243,542.963,243.267,533.929z"/>
	<path fill-rule="evenodd" clip-rule="evenodd" fill="#818185" d="M534.98,551.52c0.517-0.334,1.027-0.948,1.55-0.957
		c4.197-0.076,8.397-0.064,12.596,0.004c0.46,0.008,0.911,0.54,1.365,0.83C545.321,551.438,540.151,551.479,534.98,551.52z"/>
	<path fill-rule="evenodd" clip-rule="evenodd" fill="#818185" d="M147.35,562.979c0.344-0.936,0.688-1.871,1.032-2.807
		c-0.889-0.239-1.774-0.677-2.666-0.687c-5.437-0.065-10.875,0.006-16.312-0.069c-0.984-0.013-1.962-0.487-2.943-0.75
		c7.432,0,14.863,0,22.755,0C148.379,560.221,151.321,562.761,147.35,562.979z"/>
	<path fill-rule="evenodd" clip-rule="evenodd" fill="#818185" d="M365.645,562.98c0.344-0.938,0.688-1.874,1.032-2.812
		c-0.792-0.238-1.58-0.67-2.376-0.685c-3.961-0.07-7.925,0.016-11.887-0.064c-1.016-0.021-2.022-0.448-3.035-0.688
		c5.976-0.001,11.953-0.001,18.355-0.001C366.927,560.349,369.625,563.032,365.645,562.98z"/>
	<path fill-rule="evenodd" clip-rule="evenodd" fill="#818185" d="M246.927,458.085c0.917-0.208,1.832-0.589,2.75-0.596
		c6.414-0.045,12.829-0.013,19.243-0.005c-0.68,0.214-1.359,0.609-2.041,0.613C260.229,458.13,253.578,458.099,246.927,458.085z"/>
	<path fill-rule="evenodd" clip-rule="evenodd" fill="#818185" d="M124.089,562.982c4.014-0.179,8.026-0.448,12.042-0.5
		c2.125-0.027,4.256,0.322,6.385,0.501C136.374,562.983,130.232,562.983,124.089,562.982z"/>
	<path fill-rule="evenodd" clip-rule="evenodd" fill="#121442" d="M311.452,214.144c0.003,4.948,0.006,9.896,0.01,14.844
		C311.458,224.04,311.455,219.091,311.452,214.144z"/>
	<path fill-rule="evenodd" clip-rule="evenodd" fill="#818185" d="M353.717,562.983c2.763,0,5.525,0,8.288,0
		C359.242,562.983,356.479,562.983,353.717,562.983z"/>
	<path fill-rule="evenodd" clip-rule="evenodd" fill="#818185" d="M80.5,481.908c-0.113,0.393-0.226,0.786-0.339,1.179
		C80.274,482.694,80.387,482.301,80.5,481.908z"/>
	<path fill-rule="evenodd" clip-rule="evenodd" fill="#818185" d="M245.754,562.98c0.183-0.003,0.365-0.004,0.548-0.006
		c0-0.001-0.273,0.048-0.273,0.048L245.754,562.98z"/>
	<path fill-rule="evenodd" clip-rule="evenodd" fill="#818185" d="M246.941,562.993c0.187-0.001,0.374-0.003,0.561-0.003
		l-0.28,0.055L246.941,562.993z"/>
	<path fill-rule="evenodd" clip-rule="evenodd" fill="#121442" d="M487.889,92.455c0,13.26,0,26.52,0,39.78
		c-0.137,0.009-0.272,0.017-0.409,0.026c-0.063-0.557-0.178-1.115-0.178-1.672c-0.01-11.789-0.02-23.577,0.021-35.366
		c0.003-0.928,0.366-1.856,0.563-2.784L487.889,92.455z"/>
	<path fill-rule="evenodd" clip-rule="evenodd" fill="#121442" d="M476.986,101.577c0,10.461,0,20.921,0,31.381
		c-0.093,0-0.186,0-0.278-0.001c0-10.489,0-20.978,0-31.467C476.801,101.52,476.894,101.548,476.986,101.577z"/>
	<path fill-rule="evenodd" clip-rule="evenodd" fill="#121442" d="M476.759,136.886c-0.042-0.387-0.069-0.631-0.096-0.875
		c0.142,0.097,0.364,0.169,0.401,0.297C477.098,136.421,476.924,136.594,476.759,136.886z"/>
	<path fill-rule="evenodd" clip-rule="evenodd" fill="#121442" d="M476.808,99.839c-0.048-0.166-0.089-0.251-0.085-0.335
		c0-0.024,0.133-0.042,0.205-0.063C476.895,99.551,476.861,99.662,476.808,99.839z"/>
	<path fill-rule="evenodd" clip-rule="evenodd" fill="#F9F9FA" d="M540.353,118.61c0,4.868,0.212,9.528-0.061,14.159
		c-0.264,4.486-4.829,8.288-10.126,8.945c-5.339,0.662-9.798-1.668-11.445-5.981c-1.786-4.677-0.114-9.899,4.229-12.772
		C528.102,119.552,533.966,118.788,540.353,118.61z"/>
	<path fill-rule="evenodd" clip-rule="evenodd" fill="#F9F9FA" d="M296.59,470.708c0-4.558,0-8.397,0-12.49
		c5.096,0,10.11-0.257,15.081,0.096c3.021,0.214,4.953,3.007,4.899,5.811c-0.055,2.818-2.083,5.475-5.03,5.762
		C306.659,470.362,301.74,470.446,296.59,470.708z"/>
	<path fill-rule="evenodd" clip-rule="evenodd" fill="#FEFEFE" d="M428.943,486.909c0-9.593,0-18.996,0-29.079
		c4.646,0.337,9.207,0.287,13.605,1.106c3.576,0.667,5.926,3.679,6.343,7.157c0.51,4.255,0.535,8.688-0.07,12.924
		c-0.667,4.664-3.78,7.613-8.73,7.857C436.459,487.054,432.813,486.909,428.943,486.909z"/>
	<path fill-rule="evenodd" clip-rule="evenodd" fill="#F9F9FA" d="M531.642,458.08c4.156,0.154,8.327,0.146,12.465,0.51
		c3.9,0.343,6.233,2.973,7.45,6.452c1.947,5.561,1.791,11.226-0.725,16.522c-0.891,1.874-2.947,4.16-4.757,4.445
		c-4.789,0.756-9.734,0.52-14.617,0.679C531.52,477.152,531.58,467.616,531.642,458.08z"/>
	<path fill-rule="evenodd" clip-rule="evenodd" fill="#818185" d="M531.642,458.08c-0.062,9.536-0.122,19.072-0.184,28.608
		c-0.21-0.723-0.6-1.443-0.604-2.166c-0.044-8.035-0.05-16.07,0.008-24.104C530.868,459.637,531.37,458.859,531.642,458.08z"/>
	<path fill-rule="evenodd" clip-rule="evenodd" fill="#FEFEFE" d="M61.23,529.611c2.979-0.008,5.958-0.076,8.935-0.014
		c7.311,0.153,10.687,2.691,11.675,9.981c0.517,3.81,0.083,7.936-0.825,11.702c-1.163,4.825-4.201,6.815-9.143,7.002
		c-3.567,0.135-7.143,0.013-10.714,0.004C61.182,548.729,61.206,539.171,61.23,529.611z"/>
	<path fill-rule="evenodd" clip-rule="evenodd" fill="#818185" d="M61.23,529.611c-0.024,9.56-0.048,19.117-0.072,28.676
		c-0.306-0.745-0.87-1.489-0.876-2.237c-0.063-8.086-0.063-16.173,0.005-24.259C60.293,531.063,60.901,530.338,61.23,529.611z"/>
	<path fill-rule="evenodd" clip-rule="evenodd" fill="#F9F9FA" d="M483.723,475.671c2.024-5.696,3.973-11.18,6.017-16.928
		c2.056,5.577,4.077,11.063,6.238,16.928C491.768,475.671,487.893,475.671,483.723,475.671z"/>
	<path fill-rule="evenodd" clip-rule="evenodd" fill="#FEFEFE" d="M133.579,482.498c0.212,0.004,0.425,0.008,0.638,0.011
		C134.004,482.506,133.792,482.502,133.579,482.498z"/>
	<path fill-rule="evenodd" clip-rule="evenodd" fill="#F9F9FA" d="M419.597,547.21c-4.265,0-8.082,0-12.353,0
		c1.982-5.64,3.929-11.173,6.039-17.173C415.414,535.833,417.446,541.36,419.597,547.21z"/>
	<path fill-rule="evenodd" clip-rule="evenodd" fill="#F9F9FA" d="M536.606,547.193c2.06-5.856,4.021-11.433,6.043-17.184
		c2.069,5.638,4.132,11.254,6.31,17.184C544.698,547.193,540.827,547.193,536.606,547.193z"/>
	<path fill-rule="evenodd" clip-rule="evenodd" fill="#F9F9FA" d="M302.009,547.271c-4.288,0-8.118,0-12.434,0
		c2.071-5.903,4.05-11.54,6.074-17.309C297.724,535.608,299.791,541.231,302.009,547.271z"/>
</g>
</svg>
